<svg width="843" height="448" viewBox="0 0 843 448" fill="none" xmlns="http://www.w3.org/2000/svg">
<g filter="url(#filter0_d_8784_158894)">
<rect x="6.5" y="6.5" width="822" height="427" rx="11.5" stroke="#D9D9D9" shape-rendering="crispEdges"/>
<g clip-path="url(#clip0_8784_158894)">
<path d="M31.314 48.5V35.9H36.318C37.086 35.9 37.77 36.056 38.37 36.368C38.982 36.668 39.456 37.1 39.792 37.664C40.14 38.216 40.314 38.882 40.314 39.662V39.896C40.314 40.676 40.134 41.348 39.774 41.912C39.426 42.476 38.952 42.908 38.352 43.208C37.752 43.508 37.074 43.658 36.318 43.658H33.258V48.5H31.314ZM33.258 41.894H36.12C36.804 41.894 37.35 41.714 37.758 41.354C38.166 40.994 38.37 40.502 38.37 39.878V39.698C38.37 39.062 38.166 38.564 37.758 38.204C37.35 37.844 36.804 37.664 36.12 37.664H33.258V41.894ZM42.2137 48.5V39.626H44.0317V40.67H44.3197C44.4637 40.298 44.6917 40.028 45.0037 39.86C45.3277 39.68 45.7237 39.59 46.1917 39.59H47.2537V41.264H46.1197C45.5197 41.264 45.0277 41.432 44.6437 41.768C44.2597 42.092 44.0677 42.596 44.0677 43.28V48.5H42.2137ZM53.0162 48.752C52.1282 48.752 51.3362 48.572 50.6402 48.212C49.9562 47.84 49.4162 47.312 49.0202 46.628C48.6242 45.944 48.4262 45.134 48.4262 44.198V43.928C48.4262 42.992 48.6242 42.188 49.0202 41.516C49.4162 40.832 49.9562 40.304 50.6402 39.932C51.3362 39.56 52.1282 39.374 53.0162 39.374C53.9042 39.374 54.6962 39.56 55.3922 39.932C56.0882 40.304 56.6342 40.832 57.0302 41.516C57.4262 42.188 57.6242 42.992 57.6242 43.928V44.198C57.6242 45.134 57.4262 45.944 57.0302 46.628C56.6342 47.312 56.0882 47.84 55.3922 48.212C54.6962 48.572 53.9042 48.752 53.0162 48.752ZM53.0162 47.096C53.8322 47.096 54.4922 46.838 54.9962 46.322C55.5122 45.794 55.7702 45.068 55.7702 44.144V43.982C55.7702 43.058 55.5182 42.338 55.0142 41.822C54.5102 41.294 53.8442 41.03 53.0162 41.03C52.2122 41.03 51.5522 41.294 51.0362 41.822C50.5322 42.338 50.2802 43.058 50.2802 43.982V44.144C50.2802 45.068 50.5322 45.794 51.0362 46.322C51.5522 46.838 52.2122 47.096 53.0162 47.096ZM58.2405 52.1V50.498H59.4465C59.7945 50.498 59.9685 50.318 59.9685 49.958V39.626H61.8225V50.318C61.8225 50.858 61.6665 51.29 61.3545 51.614C61.0425 51.938 60.6045 52.1 60.0405 52.1H58.2405ZM60.9045 38.42C60.5445 38.42 60.2385 38.306 59.9865 38.078C59.7465 37.838 59.6265 37.532 59.6265 37.16C59.6265 36.788 59.7465 36.488 59.9865 36.26C60.2385 36.02 60.5445 35.9 60.9045 35.9C61.2765 35.9 61.5825 36.02 61.8225 36.26C62.0625 36.488 62.1825 36.788 62.1825 37.16C62.1825 37.532 62.0625 37.838 61.8225 38.078C61.5825 38.306 61.2765 38.42 60.9045 38.42ZM68.6411 48.752C67.7411 48.752 66.9551 48.566 66.2831 48.194C65.6111 47.81 65.0831 47.276 64.6991 46.592C64.3271 45.896 64.1411 45.092 64.1411 44.18V43.964C64.1411 43.04 64.3271 42.236 64.6991 41.552C65.0711 40.856 65.5871 40.322 66.2471 39.95C66.9191 39.566 67.6931 39.374 68.5691 39.374C69.4211 39.374 70.1651 39.566 70.8011 39.95C71.4491 40.322 71.9531 40.844 72.3131 41.516C72.6731 42.188 72.8531 42.974 72.8531 43.874V44.576H66.0311C66.0551 45.356 66.3131 45.98 66.8051 46.448C67.3091 46.904 67.9331 47.132 68.6771 47.132C69.3731 47.132 69.8951 46.976 70.2431 46.664C70.6031 46.352 70.8791 45.992 71.0711 45.584L72.6011 46.376C72.4331 46.712 72.1871 47.066 71.8631 47.438C71.5511 47.81 71.1371 48.122 70.6211 48.374C70.1051 48.626 69.4451 48.752 68.6411 48.752ZM66.0491 43.154H70.9631C70.9151 42.482 70.6751 41.96 70.2431 41.588C69.8111 41.204 69.2471 41.012 68.5511 41.012C67.8551 41.012 67.2851 41.204 66.8411 41.588C66.4091 41.96 66.1451 42.482 66.0491 43.154ZM79.2068 48.752C78.3548 48.752 77.5808 48.572 76.8848 48.212C76.2008 47.852 75.6548 47.33 75.2468 46.646C74.8508 45.962 74.6528 45.14 74.6528 44.18V43.946C74.6528 42.986 74.8508 42.17 75.2468 41.498C75.6548 40.814 76.2008 40.292 76.8848 39.932C77.5808 39.56 78.3548 39.374 79.2068 39.374C80.0588 39.374 80.7848 39.53 81.3848 39.842C81.9848 40.154 82.4648 40.568 82.8248 41.084C83.1968 41.6 83.4368 42.17 83.5448 42.794L81.7448 43.172C81.6848 42.776 81.5588 42.416 81.3668 42.092C81.1748 41.768 80.9048 41.51 80.5568 41.318C80.2088 41.126 79.7708 41.03 79.2428 41.03C78.7268 41.03 78.2588 41.15 77.8388 41.39C77.4308 41.618 77.1068 41.954 76.8668 42.398C76.6268 42.83 76.5068 43.358 76.5068 43.982V44.144C76.5068 44.768 76.6268 45.302 76.8668 45.746C77.1068 46.19 77.4308 46.526 77.8388 46.754C78.2588 46.982 78.7268 47.096 79.2428 47.096C80.0228 47.096 80.6168 46.898 81.0248 46.502C81.4328 46.094 81.6908 45.578 81.7988 44.954L83.5988 45.368C83.4548 45.98 83.1968 46.544 82.8248 47.06C82.4648 47.576 81.9848 47.99 81.3848 48.302C80.7848 48.602 80.0588 48.752 79.2068 48.752ZM88.7332 48.5C88.1932 48.5 87.7612 48.338 87.4372 48.014C87.1252 47.69 86.9692 47.258 86.9692 46.718V41.192H84.5212V39.626H86.9692V36.692H88.8232V39.626H91.4692V41.192H88.8232V46.394C88.8232 46.754 88.9912 46.934 89.3272 46.934H91.1812V48.5H88.7332ZM97.2833 48.752C96.1553 48.752 95.2193 48.5 94.4753 47.996C93.7313 47.492 93.2753 46.73 93.1073 45.71L94.8353 45.296C94.9313 45.788 95.0933 46.178 95.3213 46.466C95.5493 46.754 95.8313 46.958 96.1673 47.078C96.5153 47.198 96.8873 47.258 97.2833 47.258C97.8713 47.258 98.3213 47.144 98.6333 46.916C98.9573 46.688 99.1193 46.394 99.1193 46.034C99.1193 45.674 98.9693 45.41 98.6693 45.242C98.3693 45.074 97.9253 44.936 97.3373 44.828L96.7253 44.72C96.1253 44.612 95.5793 44.456 95.0873 44.252C94.5953 44.048 94.2053 43.766 93.9173 43.406C93.6293 43.046 93.4853 42.584 93.4853 42.02C93.4853 41.18 93.7973 40.532 94.4213 40.076C95.0453 39.608 95.8733 39.374 96.9053 39.374C97.9013 39.374 98.7173 39.602 99.3533 40.058C100.001 40.502 100.421 41.108 100.613 41.876L98.8853 42.362C98.7773 41.822 98.5493 41.444 98.2013 41.228C97.8533 41 97.4213 40.886 96.9053 40.886C96.4013 40.886 96.0053 40.982 95.7173 41.174C95.4293 41.354 95.2853 41.612 95.2853 41.948C95.2853 42.308 95.4233 42.572 95.6993 42.74C95.9873 42.908 96.3713 43.034 96.8513 43.118L97.4813 43.226C98.1173 43.334 98.6993 43.484 99.2273 43.676C99.7553 43.868 100.169 44.144 100.469 44.504C100.781 44.864 100.937 45.344 100.937 45.944C100.937 46.832 100.607 47.522 99.9473 48.014C99.2873 48.506 98.3993 48.752 97.2833 48.752ZM107.638 48.5V35.9H109.582V48.5H107.638ZM112.263 48.5V39.626H114.081V40.958H114.369C114.537 40.598 114.837 40.262 115.269 39.95C115.701 39.638 116.343 39.482 117.195 39.482C117.867 39.482 118.461 39.632 118.977 39.932C119.505 40.232 119.919 40.658 120.219 41.21C120.519 41.75 120.669 42.404 120.669 43.172V48.5H118.815V43.316C118.815 42.548 118.623 41.984 118.239 41.624C117.855 41.252 117.327 41.066 116.655 41.066C115.887 41.066 115.269 41.318 114.801 41.822C114.345 42.326 114.117 43.058 114.117 44.018V48.5H112.263ZM126.973 48.752C125.845 48.752 124.909 48.5 124.165 47.996C123.421 47.492 122.965 46.73 122.797 45.71L124.525 45.296C124.621 45.788 124.783 46.178 125.011 46.466C125.239 46.754 125.521 46.958 125.857 47.078C126.205 47.198 126.577 47.258 126.973 47.258C127.561 47.258 128.011 47.144 128.323 46.916C128.647 46.688 128.809 46.394 128.809 46.034C128.809 45.674 128.659 45.41 128.359 45.242C128.059 45.074 127.615 44.936 127.027 44.828L126.415 44.72C125.815 44.612 125.269 44.456 124.777 44.252C124.285 44.048 123.895 43.766 123.607 43.406C123.319 43.046 123.175 42.584 123.175 42.02C123.175 41.18 123.487 40.532 124.111 40.076C124.735 39.608 125.563 39.374 126.595 39.374C127.591 39.374 128.407 39.602 129.043 40.058C129.691 40.502 130.111 41.108 130.303 41.876L128.575 42.362C128.467 41.822 128.239 41.444 127.891 41.228C127.543 41 127.111 40.886 126.595 40.886C126.091 40.886 125.695 40.982 125.407 41.174C125.119 41.354 124.975 41.612 124.975 41.948C124.975 42.308 125.113 42.572 125.389 42.74C125.677 42.908 126.061 43.034 126.541 43.118L127.171 43.226C127.807 43.334 128.389 43.484 128.917 43.676C129.445 43.868 129.859 44.144 130.159 44.504C130.471 44.864 130.627 45.344 130.627 45.944C130.627 46.832 130.297 47.522 129.637 48.014C128.977 48.506 128.089 48.752 126.973 48.752ZM132.794 48.5V39.626H134.648V48.5H132.794ZM133.73 38.42C133.37 38.42 133.064 38.306 132.812 38.078C132.572 37.838 132.452 37.532 132.452 37.16C132.452 36.788 132.572 36.488 132.812 36.26C133.064 36.02 133.37 35.9 133.73 35.9C134.102 35.9 134.408 36.02 134.648 36.26C134.888 36.488 135.008 36.788 135.008 37.16C135.008 37.532 134.888 37.838 134.648 38.078C134.408 38.306 134.102 38.42 133.73 38.42ZM136.967 44.108V43.838C136.967 42.902 137.153 42.104 137.525 41.444C137.909 40.784 138.413 40.274 139.037 39.914C139.661 39.554 140.345 39.374 141.089 39.374C141.953 39.374 142.613 39.536 143.069 39.86C143.537 40.184 143.879 40.532 144.095 40.904H144.383V39.626H146.183V50.318C146.183 50.858 146.021 51.29 145.697 51.614C145.385 51.938 144.953 52.1 144.401 52.1H138.425V50.48H143.825C144.173 50.48 144.347 50.3 144.347 49.94V47.114H144.059C143.927 47.33 143.741 47.552 143.501 47.78C143.261 48.008 142.943 48.194 142.547 48.338C142.163 48.482 141.677 48.554 141.089 48.554C140.345 48.554 139.655 48.38 139.019 48.032C138.395 47.672 137.897 47.162 137.525 46.502C137.153 45.83 136.967 45.032 136.967 44.108ZM141.593 46.934C142.397 46.934 143.057 46.682 143.573 46.178C144.101 45.662 144.365 44.954 144.365 44.054V43.892C144.365 42.968 144.107 42.26 143.591 41.768C143.075 41.264 142.409 41.012 141.593 41.012C140.801 41.012 140.141 41.264 139.613 41.768C139.097 42.26 138.839 42.968 138.839 43.892V44.054C138.839 44.954 139.097 45.662 139.613 46.178C140.141 46.682 140.801 46.934 141.593 46.934ZM148.913 48.5V35.9H150.767V40.886H151.055C151.175 40.658 151.343 40.436 151.559 40.22C151.787 40.004 152.081 39.83 152.441 39.698C152.813 39.554 153.281 39.482 153.845 39.482C154.517 39.482 155.111 39.632 155.627 39.932C156.155 40.232 156.569 40.658 156.869 41.21C157.169 41.75 157.319 42.404 157.319 43.172V48.5H155.465V43.316C155.465 42.548 155.273 41.984 154.889 41.624C154.505 41.252 153.977 41.066 153.305 41.066C152.537 41.066 151.919 41.318 151.451 41.822C150.995 42.326 150.767 43.058 150.767 44.018V48.5H148.913ZM163.071 48.5C162.531 48.5 162.099 48.338 161.775 48.014C161.463 47.69 161.307 47.258 161.307 46.718V41.192H158.859V39.626H161.307V36.692H163.161V39.626H165.807V41.192H163.161V46.394C163.161 46.754 163.329 46.934 163.665 46.934H165.519V48.5H163.071ZM171.621 48.752C170.493 48.752 169.557 48.5 168.813 47.996C168.069 47.492 167.613 46.73 167.445 45.71L169.173 45.296C169.269 45.788 169.431 46.178 169.659 46.466C169.887 46.754 170.169 46.958 170.505 47.078C170.853 47.198 171.225 47.258 171.621 47.258C172.209 47.258 172.659 47.144 172.971 46.916C173.295 46.688 173.457 46.394 173.457 46.034C173.457 45.674 173.307 45.41 173.007 45.242C172.707 45.074 172.263 44.936 171.675 44.828L171.063 44.72C170.463 44.612 169.917 44.456 169.425 44.252C168.933 44.048 168.543 43.766 168.255 43.406C167.967 43.046 167.823 42.584 167.823 42.02C167.823 41.18 168.135 40.532 168.759 40.076C169.383 39.608 170.211 39.374 171.243 39.374C172.239 39.374 173.055 39.602 173.691 40.058C174.339 40.502 174.759 41.108 174.951 41.876L173.223 42.362C173.115 41.822 172.887 41.444 172.539 41.228C172.191 41 171.759 40.886 171.243 40.886C170.739 40.886 170.343 40.982 170.055 41.174C169.767 41.354 169.623 41.612 169.623 41.948C169.623 42.308 169.761 42.572 170.037 42.74C170.325 42.908 170.709 43.034 171.189 43.118L171.819 43.226C172.455 43.334 173.037 43.484 173.565 43.676C174.093 43.868 174.507 44.144 174.807 44.504C175.119 44.864 175.275 45.344 175.275 45.944C175.275 46.832 174.945 47.522 174.285 48.014C173.625 48.506 172.737 48.752 171.621 48.752Z" fill="#393A3E"/>
<path d="M199 52C204.523 52 209 47.5228 209 42C209 36.4772 204.523 32 199 32C193.477 32 189 36.4772 189 42C189 47.5228 193.477 52 199 52Z" stroke="#393A3E" stroke-width="2" stroke-linecap="round" stroke-linejoin="round"/>
<path d="M199 46V42" stroke="#393A3E" stroke-width="2" stroke-linecap="round" stroke-linejoin="round"/>
<path d="M199 38H199.01" stroke="#393A3E" stroke-width="2" stroke-linecap="round" stroke-linejoin="round"/>
</g>
<path d="M34.112 91V80.984H33.856L32.016 84.76H30.24L32.72 79.8H35.792V91H34.112ZM41.7851 91.224C40.9425 91.224 40.2118 91.0693 39.5931 90.76C38.9745 90.4507 38.4945 90.0133 38.1531 89.448C37.8225 88.8827 37.6571 88.2267 37.6571 87.48V87.304H39.3691V87.464C39.3691 88.1467 39.5771 88.696 39.9931 89.112C40.4198 89.5173 41.0118 89.72 41.7691 89.72C42.5478 89.72 43.1505 89.5067 43.5771 89.08C44.0038 88.6533 44.2171 88.0773 44.2171 87.352V87.208C44.2171 86.5147 44.0038 85.96 43.5771 85.544C43.1611 85.128 42.6278 84.92 41.9771 84.92C41.6145 84.92 41.3105 84.9787 41.0651 85.096C40.8305 85.2027 40.6385 85.336 40.4891 85.496C40.3505 85.656 40.2331 85.8107 40.1371 85.96H38.0091V79.8H45.5131V81.32H39.6891V84.616H39.9451C40.0518 84.4347 40.2011 84.264 40.3931 84.104C40.5958 83.9333 40.8571 83.7947 41.1771 83.688C41.4971 83.5813 41.8811 83.528 42.3291 83.528C42.9905 83.528 43.5878 83.672 44.1211 83.96C44.6651 84.2373 45.0971 84.6533 45.4171 85.208C45.7371 85.752 45.8971 86.4133 45.8971 87.192V87.368C45.8971 88.1467 45.7318 88.824 45.4011 89.4C45.0705 89.976 44.5958 90.424 43.9771 90.744C43.3691 91.064 42.6385 91.224 41.7851 91.224ZM51.6833 91.224C50.3819 91.224 49.3419 90.856 48.5633 90.12C47.7953 89.3733 47.4113 88.2533 47.4113 86.76V84.04C47.4113 82.5787 47.7953 81.4693 48.5633 80.712C49.3419 79.9547 50.3819 79.576 51.6833 79.576C52.9953 79.576 54.0353 79.9547 54.8033 80.712C55.5819 81.4693 55.9713 82.5787 55.9713 84.04V86.76C55.9713 88.2533 55.5819 89.3733 54.8033 90.12C54.0353 90.856 52.9953 91.224 51.6833 91.224ZM51.6833 89.72C52.5686 89.72 53.2246 89.4693 53.6513 88.968C54.0779 88.456 54.2913 87.7413 54.2913 86.824V83.944C54.2913 83.0267 54.0619 82.3227 53.6033 81.832C53.1446 81.3307 52.5046 81.08 51.6833 81.08C50.8513 81.08 50.2113 81.336 49.7633 81.848C49.3153 82.3493 49.0913 83.048 49.0913 83.944V86.824C49.0913 87.7627 49.3046 88.4827 49.7313 88.984C50.1686 89.4747 50.8193 89.72 51.6833 89.72ZM61.9958 91.224C60.6944 91.224 59.6544 90.856 58.8758 90.12C58.1078 89.3733 57.7238 88.2533 57.7238 86.76V84.04C57.7238 82.5787 58.1078 81.4693 58.8758 80.712C59.6544 79.9547 60.6944 79.576 61.9958 79.576C63.3078 79.576 64.3478 79.9547 65.1158 80.712C65.8944 81.4693 66.2838 82.5787 66.2838 84.04V86.76C66.2838 88.2533 65.8944 89.3733 65.1158 90.12C64.3478 90.856 63.3078 91.224 61.9958 91.224ZM61.9958 89.72C62.8811 89.72 63.5371 89.4693 63.9638 88.968C64.3904 88.456 64.6038 87.7413 64.6038 86.824V83.944C64.6038 83.0267 64.3744 82.3227 63.9158 81.832C63.4571 81.3307 62.8171 81.08 61.9958 81.08C61.1638 81.08 60.5238 81.336 60.0758 81.848C59.6278 82.3493 59.4038 83.048 59.4038 83.944V86.824C59.4038 87.7627 59.6171 88.4827 60.0438 88.984C60.4811 89.4747 61.1318 89.72 61.9958 89.72Z" fill="#6A707E"/>
<path d="M34.112 161V150.984H33.856L32.016 154.76H30.24L32.72 149.8H35.792V161H34.112ZM42.1051 161.224C40.8038 161.224 39.7638 160.856 38.9851 160.12C38.2171 159.373 37.8331 158.253 37.8331 156.76V154.04C37.8331 152.579 38.2171 151.469 38.9851 150.712C39.7638 149.955 40.8038 149.576 42.1051 149.576C43.4171 149.576 44.4571 149.955 45.2251 150.712C46.0038 151.469 46.3931 152.579 46.3931 154.04V156.76C46.3931 158.253 46.0038 159.373 45.2251 160.12C44.4571 160.856 43.4171 161.224 42.1051 161.224ZM42.1051 159.72C42.9905 159.72 43.6465 159.469 44.0731 158.968C44.4998 158.456 44.7131 157.741 44.7131 156.824V153.944C44.7131 153.027 44.4838 152.323 44.0251 151.832C43.5665 151.331 42.9265 151.08 42.1051 151.08C41.2731 151.08 40.6331 151.336 40.1851 151.848C39.7371 152.349 39.5131 153.048 39.5131 153.944V156.824C39.5131 157.763 39.7265 158.483 40.1531 158.984C40.5905 159.475 41.2411 159.72 42.1051 159.72ZM52.4176 161.224C51.1163 161.224 50.0763 160.856 49.2976 160.12C48.5296 159.373 48.1456 158.253 48.1456 156.76V154.04C48.1456 152.579 48.5296 151.469 49.2976 150.712C50.0763 149.955 51.1163 149.576 52.4176 149.576C53.7296 149.576 54.7696 149.955 55.5376 150.712C56.3163 151.469 56.7056 152.579 56.7056 154.04V156.76C56.7056 158.253 56.3163 159.373 55.5376 160.12C54.7696 160.856 53.7296 161.224 52.4176 161.224ZM52.4176 159.72C53.303 159.72 53.959 159.469 54.3856 158.968C54.8123 158.456 55.0256 157.741 55.0256 156.824V153.944C55.0256 153.027 54.7963 152.323 54.3376 151.832C53.879 151.331 53.239 151.08 52.4176 151.08C51.5856 151.08 50.9456 151.336 50.4976 151.848C50.0496 152.349 49.8256 153.048 49.8256 153.944V156.824C49.8256 157.763 50.039 158.483 50.4656 158.984C50.903 159.475 51.5536 159.72 52.4176 159.72ZM62.7301 161.224C61.4288 161.224 60.3888 160.856 59.6101 160.12C58.8421 159.373 58.4581 158.253 58.4581 156.76V154.04C58.4581 152.579 58.8421 151.469 59.6101 150.712C60.3888 149.955 61.4288 149.576 62.7301 149.576C64.0421 149.576 65.0821 149.955 65.8501 150.712C66.6288 151.469 67.0181 152.579 67.0181 154.04V156.76C67.0181 158.253 66.6288 159.373 65.8501 160.12C65.0821 160.856 64.0421 161.224 62.7301 161.224ZM62.7301 159.72C63.6155 159.72 64.2715 159.469 64.6981 158.968C65.1248 158.456 65.3381 157.741 65.3381 156.824V153.944C65.3381 153.027 65.1088 152.323 64.6501 151.832C64.1915 151.331 63.5515 151.08 62.7301 151.08C61.8981 151.08 61.2581 151.336 60.8101 151.848C60.3621 152.349 60.1381 153.048 60.1381 153.944V156.824C60.1381 157.763 60.3515 158.483 60.7781 158.984C61.2155 159.475 61.8661 159.72 62.7301 159.72Z" fill="#6A707E"/>
<path d="M34.832 231.224C33.9893 231.224 33.2587 231.069 32.64 230.76C32.0213 230.451 31.5413 230.013 31.2 229.448C30.8693 228.883 30.704 228.227 30.704 227.48V227.304H32.416V227.464C32.416 228.147 32.624 228.696 33.04 229.112C33.4667 229.517 34.0587 229.72 34.816 229.72C35.5947 229.72 36.1973 229.507 36.624 229.08C37.0507 228.653 37.264 228.077 37.264 227.352V227.208C37.264 226.515 37.0507 225.96 36.624 225.544C36.208 225.128 35.6747 224.92 35.024 224.92C34.6613 224.92 34.3573 224.979 34.112 225.096C33.8773 225.203 33.6853 225.336 33.536 225.496C33.3973 225.656 33.28 225.811 33.184 225.96H31.056V219.8H38.56V221.32H32.736V224.616H32.992C33.0987 224.435 33.248 224.264 33.44 224.104C33.6427 223.933 33.904 223.795 34.224 223.688C34.544 223.581 34.928 223.528 35.376 223.528C36.0373 223.528 36.6347 223.672 37.168 223.96C37.712 224.237 38.144 224.653 38.464 225.208C38.784 225.752 38.944 226.413 38.944 227.192V227.368C38.944 228.147 38.7787 228.824 38.448 229.4C38.1173 229.976 37.6427 230.424 37.024 230.744C36.416 231.064 35.6853 231.224 34.832 231.224ZM44.7301 231.224C43.4288 231.224 42.3888 230.856 41.6101 230.12C40.8421 229.373 40.4581 228.253 40.4581 226.76V224.04C40.4581 222.579 40.8421 221.469 41.6101 220.712C42.3888 219.955 43.4288 219.576 44.7301 219.576C46.0421 219.576 47.0821 219.955 47.8501 220.712C48.6288 221.469 49.0181 222.579 49.0181 224.04V226.76C49.0181 228.253 48.6288 229.373 47.8501 230.12C47.0821 230.856 46.0421 231.224 44.7301 231.224ZM44.7301 229.72C45.6155 229.72 46.2715 229.469 46.6981 228.968C47.1248 228.456 47.3381 227.741 47.3381 226.824V223.944C47.3381 223.027 47.1088 222.323 46.6501 221.832C46.1915 221.331 45.5515 221.08 44.7301 221.08C43.8981 221.08 43.2581 221.336 42.8101 221.848C42.3621 222.349 42.1381 223.048 42.1381 223.944V226.824C42.1381 227.763 42.3515 228.483 42.7781 228.984C43.2155 229.475 43.8661 229.72 44.7301 229.72ZM55.0426 231.224C53.7413 231.224 52.7013 230.856 51.9226 230.12C51.1546 229.373 50.7706 228.253 50.7706 226.76V224.04C50.7706 222.579 51.1546 221.469 51.9226 220.712C52.7013 219.955 53.7413 219.576 55.0426 219.576C56.3546 219.576 57.3946 219.955 58.1626 220.712C58.9413 221.469 59.3306 222.579 59.3306 224.04V226.76C59.3306 228.253 58.9413 229.373 58.1626 230.12C57.3946 230.856 56.3546 231.224 55.0426 231.224ZM55.0426 229.72C55.928 229.72 56.584 229.469 57.0106 228.968C57.4373 228.456 57.6506 227.741 57.6506 226.824V223.944C57.6506 223.027 57.4213 222.323 56.9626 221.832C56.504 221.331 55.864 221.08 55.0426 221.08C54.2106 221.08 53.5706 221.336 53.1226 221.848C52.6746 222.349 52.4506 223.048 52.4506 223.944V226.824C52.4506 227.763 52.664 228.483 53.0906 228.984C53.528 229.475 54.1786 229.72 55.0426 229.72Z" fill="#6A707E"/>
<path d="M30.768 301V299.736C30.768 298.957 30.9013 298.317 31.168 297.816C31.4347 297.315 31.8133 296.909 32.304 296.6C32.8053 296.28 33.408 296.013 34.112 295.8L35.088 295.496C35.5253 295.357 35.8987 295.187 36.208 294.984C36.528 294.781 36.7733 294.531 36.944 294.232C37.1147 293.923 37.2 293.565 37.2 293.16V293.096C37.2 292.467 36.9867 291.976 36.56 291.624C36.1333 291.261 35.5733 291.08 34.88 291.08C34.1653 291.08 33.584 291.272 33.136 291.656C32.6987 292.04 32.48 292.605 32.48 293.352V293.608H30.816V293.368C30.816 292.557 30.992 291.875 31.344 291.32C31.696 290.755 32.1813 290.323 32.8 290.024C33.4187 289.725 34.112 289.576 34.88 289.576C35.648 289.576 36.3307 289.72 36.928 290.008C37.536 290.296 38.0107 290.701 38.352 291.224C38.704 291.747 38.88 292.36 38.88 293.064V293.208C38.88 293.933 38.736 294.536 38.448 295.016C38.16 295.496 37.76 295.891 37.248 296.2C36.7467 296.509 36.1653 296.771 35.504 296.984L34.56 297.272C34.0587 297.421 33.6533 297.587 33.344 297.768C33.0453 297.939 32.8213 298.147 32.672 298.392C32.5333 298.637 32.464 298.952 32.464 299.336V299.496H38.784V301H30.768ZM44.3945 301.224C43.5518 301.224 42.8212 301.069 42.2025 300.76C41.5838 300.451 41.1038 300.013 40.7625 299.448C40.4318 298.883 40.2665 298.227 40.2665 297.48V297.304H41.9785V297.464C41.9785 298.147 42.1865 298.696 42.6025 299.112C43.0292 299.517 43.6212 299.72 44.3785 299.72C45.1572 299.72 45.7598 299.507 46.1865 299.08C46.6132 298.653 46.8265 298.077 46.8265 297.352V297.208C46.8265 296.515 46.6132 295.96 46.1865 295.544C45.7705 295.128 45.2372 294.92 44.5865 294.92C44.2238 294.92 43.9198 294.979 43.6745 295.096C43.4398 295.203 43.2478 295.336 43.0985 295.496C42.9598 295.656 42.8425 295.811 42.7465 295.96H40.6185V289.8H48.1225V291.32H42.2985V294.616H42.5545C42.6612 294.435 42.8105 294.264 43.0025 294.104C43.2052 293.933 43.4665 293.795 43.7865 293.688C44.1065 293.581 44.4905 293.528 44.9385 293.528C45.5998 293.528 46.1972 293.672 46.7305 293.96C47.2745 294.237 47.7065 294.653 48.0265 295.208C48.3465 295.752 48.5065 296.413 48.5065 297.192V297.368C48.5065 298.147 48.3412 298.824 48.0105 299.4C47.6798 299.976 47.2052 300.424 46.5865 300.744C45.9785 301.064 45.2478 301.224 44.3945 301.224ZM54.2926 301.224C52.9913 301.224 51.9513 300.856 51.1726 300.12C50.4046 299.373 50.0206 298.253 50.0206 296.76V294.04C50.0206 292.579 50.4046 291.469 51.1726 290.712C51.9513 289.955 52.9913 289.576 54.2926 289.576C55.6046 289.576 56.6446 289.955 57.4126 290.712C58.1913 291.469 58.5806 292.579 58.5806 294.04V296.76C58.5806 298.253 58.1913 299.373 57.4126 300.12C56.6446 300.856 55.6046 301.224 54.2926 301.224ZM54.2926 299.72C55.178 299.72 55.834 299.469 56.2606 298.968C56.6873 298.456 56.9006 297.741 56.9006 296.824V293.944C56.9006 293.027 56.6713 292.323 56.2126 291.832C55.754 291.331 55.114 291.08 54.2926 291.08C53.4606 291.08 52.8206 291.336 52.3726 291.848C51.9246 292.349 51.7006 293.048 51.7006 293.944V296.824C51.7006 297.763 51.914 298.483 52.3406 298.984C52.778 299.475 53.4286 299.72 54.2926 299.72Z" fill="#6A707E"/>
<path d="M35.152 371.224C33.8507 371.224 32.8107 370.856 32.032 370.12C31.264 369.373 30.88 368.253 30.88 366.76V364.04C30.88 362.579 31.264 361.469 32.032 360.712C32.8107 359.955 33.8507 359.576 35.152 359.576C36.464 359.576 37.504 359.955 38.272 360.712C39.0507 361.469 39.44 362.579 39.44 364.04V366.76C39.44 368.253 39.0507 369.373 38.272 370.12C37.504 370.856 36.464 371.224 35.152 371.224ZM35.152 369.72C36.0373 369.72 36.6933 369.469 37.12 368.968C37.5467 368.456 37.76 367.741 37.76 366.824V363.944C37.76 363.027 37.5307 362.323 37.072 361.832C36.6133 361.331 35.9733 361.08 35.152 361.08C34.32 361.08 33.68 361.336 33.232 361.848C32.784 362.349 32.56 363.048 32.56 363.944V366.824C32.56 367.763 32.7733 368.483 33.2 368.984C33.6373 369.475 34.288 369.72 35.152 369.72Z" fill="#6A707E"/>
<path opacity="0.1" fill-rule="evenodd" clip-rule="evenodd" d="M105.245 85.9999V84.9999H815.877V85.9999H105.245Z" fill="#393A3E"/>
<path opacity="0.1" fill-rule="evenodd" clip-rule="evenodd" d="M105.245 156V155H815.877V156H105.245Z" fill="#393A3E"/>
<path opacity="0.1" fill-rule="evenodd" clip-rule="evenodd" d="M105.245 226V225H815.877V226H105.245Z" fill="#393A3E"/>
<path opacity="0.1" fill-rule="evenodd" clip-rule="evenodd" d="M105.245 296V295H815.877V296H105.245Z" fill="#393A3E"/>
<path opacity="0.1" fill-rule="evenodd" clip-rule="evenodd" d="M105.245 366V365H815.877V366H105.245Z" fill="#393A3E"/>
<path d="M149.12 406V396.2H152.872C153.46 396.2 153.983 396.317 154.44 396.55C154.907 396.774 155.275 397.096 155.546 397.516C155.817 397.936 155.952 398.445 155.952 399.042V399.224C155.952 399.812 155.812 400.321 155.532 400.75C155.261 401.17 154.893 401.492 154.426 401.716C153.959 401.94 153.441 402.052 152.872 402.052H150.296V406H149.12ZM150.296 400.988H152.746C153.371 400.988 153.866 400.834 154.23 400.526C154.594 400.209 154.776 399.765 154.776 399.196V399.056C154.776 398.487 154.594 398.048 154.23 397.74C153.875 397.423 153.381 397.264 152.746 397.264H150.296V400.988ZM157.57 406V399.154H158.648V399.994H158.844C158.966 399.695 159.152 399.476 159.404 399.336C159.656 399.196 159.988 399.126 160.398 399.126H161.21V400.134H160.328C159.834 400.134 159.432 400.274 159.124 400.554C158.826 400.825 158.676 401.249 158.676 401.828V406H157.57ZM162.764 407.708V406.686H169.288V407.708H162.764ZM173.965 406V396.956H173.755L171.851 400.442H170.619L172.957 396.2H175.099V406H173.965Z" fill="#6A707E"/>
<path d="M322.12 406V396.2H325.872C326.46 396.2 326.983 396.317 327.44 396.55C327.907 396.774 328.275 397.096 328.546 397.516C328.817 397.936 328.952 398.445 328.952 399.042V399.224C328.952 399.812 328.812 400.321 328.532 400.75C328.261 401.17 327.893 401.492 327.426 401.716C326.959 401.94 326.441 402.052 325.872 402.052H323.296V406H322.12ZM323.296 400.988H325.746C326.371 400.988 326.866 400.834 327.23 400.526C327.594 400.209 327.776 399.765 327.776 399.196V399.056C327.776 398.487 327.594 398.048 327.23 397.74C326.875 397.423 326.381 397.264 325.746 397.264H323.296V400.988ZM330.57 406V399.154H331.648V399.994H331.844C331.966 399.695 332.152 399.476 332.404 399.336C332.656 399.196 332.988 399.126 333.398 399.126H334.21V400.134H333.328C332.834 400.134 332.432 400.274 332.124 400.554C331.826 400.825 331.676 401.249 331.676 401.828V406H330.57ZM335.764 407.708V406.686H342.288V407.708H335.764ZM344.109 406V404.978C344.109 404.278 344.231 403.718 344.473 403.298C344.725 402.878 345.071 402.542 345.509 402.29C345.957 402.029 346.489 401.805 347.105 401.618L347.875 401.38C348.295 401.249 348.664 401.091 348.981 400.904C349.299 400.708 349.546 400.465 349.723 400.176C349.901 399.877 349.989 399.513 349.989 399.084V399.028C349.989 398.412 349.775 397.927 349.345 397.572C348.916 397.208 348.365 397.026 347.693 397.026C346.984 397.026 346.405 397.217 345.957 397.6C345.509 397.973 345.285 398.543 345.285 399.308V399.504H344.165V399.322C344.165 398.613 344.319 398.011 344.627 397.516C344.935 397.021 345.355 396.648 345.887 396.396C346.419 396.135 347.021 396.004 347.693 396.004C348.365 396.004 348.958 396.13 349.471 396.382C349.994 396.634 350.4 396.984 350.689 397.432C350.979 397.88 351.123 398.403 351.123 399V399.126C351.123 399.761 350.997 400.288 350.745 400.708C350.493 401.119 350.143 401.455 349.695 401.716C349.257 401.977 348.739 402.201 348.141 402.388L347.385 402.626C346.909 402.775 346.513 402.934 346.195 403.102C345.887 403.261 345.654 403.466 345.495 403.718C345.337 403.97 345.257 404.311 345.257 404.74V404.978H351.039V406H344.109Z" fill="#6A707E"/>
<path d="M497.12 406V396.2H500.872C501.46 396.2 501.983 396.317 502.44 396.55C502.907 396.774 503.275 397.096 503.546 397.516C503.817 397.936 503.952 398.445 503.952 399.042V399.224C503.952 399.812 503.812 400.321 503.532 400.75C503.261 401.17 502.893 401.492 502.426 401.716C501.959 401.94 501.441 402.052 500.872 402.052H498.296V406H497.12ZM498.296 400.988H500.746C501.371 400.988 501.866 400.834 502.23 400.526C502.594 400.209 502.776 399.765 502.776 399.196V399.056C502.776 398.487 502.594 398.048 502.23 397.74C501.875 397.423 501.381 397.264 500.746 397.264H498.296V400.988ZM505.57 406V399.154H506.648V399.994H506.844C506.966 399.695 507.152 399.476 507.404 399.336C507.656 399.196 507.988 399.126 508.398 399.126H509.21V400.134H508.328C507.834 400.134 507.432 400.274 507.124 400.554C506.826 400.825 506.676 401.249 506.676 401.828V406H505.57ZM510.764 407.708V406.686H517.288V407.708H510.764ZM522.609 406.196C521.919 406.196 521.298 406.065 520.747 405.804C520.206 405.543 519.777 405.165 519.459 404.67C519.151 404.175 518.997 403.578 518.997 402.878V402.612H520.131V402.864C520.131 403.583 520.36 404.147 520.817 404.558C521.275 404.969 521.872 405.174 522.609 405.174C523.356 405.174 523.935 404.983 524.345 404.6C524.765 404.208 524.975 403.718 524.975 403.13V403.018C524.975 402.589 524.873 402.243 524.667 401.982C524.462 401.711 524.182 401.515 523.827 401.394C523.482 401.263 523.099 401.198 522.679 401.198H521.083V399.784L524.821 397.39V397.222H519.235V396.2H526.025V397.782L522.371 400.134V400.302H523.071C523.622 400.302 524.126 400.405 524.583 400.61C525.05 400.806 525.419 401.105 525.689 401.506C525.969 401.898 526.109 402.393 526.109 402.99V403.144C526.109 403.76 525.965 404.297 525.675 404.754C525.386 405.211 524.98 405.566 524.457 405.818C523.935 406.07 523.319 406.196 522.609 406.196Z" fill="#6A707E"/>
<path d="M672.12 406V396.2H675.872C676.46 396.2 676.983 396.317 677.44 396.55C677.907 396.774 678.275 397.096 678.546 397.516C678.817 397.936 678.952 398.445 678.952 399.042V399.224C678.952 399.812 678.812 400.321 678.532 400.75C678.261 401.17 677.893 401.492 677.426 401.716C676.959 401.94 676.441 402.052 675.872 402.052H673.296V406H672.12ZM673.296 400.988H675.746C676.371 400.988 676.866 400.834 677.23 400.526C677.594 400.209 677.776 399.765 677.776 399.196V399.056C677.776 398.487 677.594 398.048 677.23 397.74C676.875 397.423 676.381 397.264 675.746 397.264H673.296V400.988ZM680.57 406V399.154H681.648V399.994H681.844C681.966 399.695 682.152 399.476 682.404 399.336C682.656 399.196 682.988 399.126 683.398 399.126H684.21V400.134H683.328C682.834 400.134 682.432 400.274 682.124 400.554C681.826 400.825 681.676 401.249 681.676 401.828V406H680.57ZM685.764 407.708V406.686H692.288V407.708H685.764ZM698.925 406V403.998H693.815V402.654L697.931 396.2H700.059V402.976H701.739V403.998H700.059V406H698.925ZM694.949 402.976H698.925V396.886H698.729L694.949 402.808V402.976Z" fill="#6A707E"/>
<path fill-rule="evenodd" clip-rule="evenodd" d="M151.147 264.888C151.147 262.679 152.937 260.888 155.147 260.888H162.88C165.089 260.888 166.88 262.679 166.88 264.888V362.556C166.88 364.765 165.089 366.556 162.88 366.556H155.147C152.937 366.556 151.147 364.765 151.147 362.556V264.888Z" fill="#939393"/>
<path fill-rule="evenodd" clip-rule="evenodd" d="M179.6 177.618C179.6 175.409 181.391 173.618 183.6 173.618H191.334C193.543 173.618 195.334 175.409 195.334 177.618V362.191C195.334 364.4 193.543 366.191 191.334 366.191H183.6C181.391 366.191 179.6 364.4 179.6 362.191V177.618Z" fill="#106DB9"/>
<path fill-rule="evenodd" clip-rule="evenodd" d="M323.054 230.178C323.054 227.969 324.844 226.178 327.054 226.178H334.787C336.996 226.178 338.787 227.969 338.787 230.178V362.411C338.787 364.62 336.996 366.411 334.787 366.411H327.054C324.844 366.411 323.054 364.62 323.054 362.411V230.178Z" fill="#939393"/>
<path fill-rule="evenodd" clip-rule="evenodd" d="M351.507 138.942C351.507 136.733 353.298 134.942 355.507 134.942H363.241C365.45 134.942 367.241 136.733 367.241 138.942V362.029C367.241 364.238 365.45 366.029 363.241 366.029H355.507C353.298 366.029 351.507 364.238 351.507 362.029V138.942Z" fill="#106DB9"/>
<path fill-rule="evenodd" clip-rule="evenodd" d="M494.961 199.436C494.961 197.226 496.752 195.436 498.961 195.436H506.694C508.903 195.436 510.694 197.226 510.694 199.436V362.282C510.694 364.491 508.903 366.282 506.694 366.282H498.961C496.752 366.282 494.961 364.491 494.961 362.282V199.436Z" fill="#939393"/>
<path fill-rule="evenodd" clip-rule="evenodd" d="M523.414 177.618C523.414 175.409 525.205 173.618 527.414 173.618H535.148C537.357 173.618 539.148 175.409 539.148 177.618V362.191C539.148 364.4 537.357 366.191 535.148 366.191H527.414C525.205 366.191 523.414 364.4 523.414 362.191V177.618Z" fill="#106DB9"/>
<path fill-rule="evenodd" clip-rule="evenodd" d="M666.868 132C666.868 129.791 668.659 128 670.868 128H678.601C680.811 128 682.601 129.791 682.601 132V362C682.601 364.209 680.811 366 678.601 366H670.868C668.659 366 666.868 364.209 666.868 362V132Z" fill="#939393"/>
<path fill-rule="evenodd" clip-rule="evenodd" d="M695.321 76.4645C695.321 74.2554 697.112 72.4645 699.321 72.4645H707.055C709.264 72.4645 711.055 74.2554 711.055 76.4645V361.767C711.055 363.977 709.264 365.767 707.055 365.767H699.321C697.112 365.767 695.321 363.977 695.321 361.767V76.4645Z" fill="#106DB9"/>
</g>
<defs>
<filter id="filter0_d_8784_158894" x="0" y="0" width="843" height="448" filterUnits="userSpaceOnUse" color-interpolation-filters="sRGB">
<feFlood flood-opacity="0" result="BackgroundImageFix"/>
<feColorMatrix in="SourceAlpha" type="matrix" values="0 0 0 0 0 0 0 0 0 0 0 0 0 0 0 0 0 0 127 0" result="hardAlpha"/>
<feOffset dx="4" dy="4"/>
<feGaussianBlur stdDeviation="5"/>
<feComposite in2="hardAlpha" operator="out"/>
<feColorMatrix type="matrix" values="0 0 0 0 0 0 0 0 0 0 0 0 0 0 0 0 0 0 0.25 0"/>
<feBlend mode="normal" in2="BackgroundImageFix" result="effect1_dropShadow_8784_158894"/>
<feBlend mode="normal" in="SourceGraphic" in2="effect1_dropShadow_8784_158894" result="shape"/>
</filter>
<clipPath id="clip0_8784_158894">
<rect width="181" height="24" fill="white" transform="translate(30 30)"/>
</clipPath>
</defs>
</svg>
