<svg width="196" height="195" viewBox="0 0 196 195" fill="none" xmlns="http://www.w3.org/2000/svg">
<g clip-path="url(#clip0_9016_153968)">
<path d="M194.607 97.7527C194.607 116.862 188.94 135.541 178.324 151.43C167.708 167.318 152.618 179.701 134.964 187.014C117.31 194.327 97.8838 196.24 79.1421 192.512C60.4005 188.784 43.1853 179.582 29.6733 166.07C16.1614 152.558 6.95961 135.343 3.23167 116.602C-0.496268 97.8599 1.41705 78.4337 8.72966 60.7795C16.0423 43.1253 28.4257 28.036 44.3141 17.4197C60.2025 6.80345 78.8821 1.13704 97.9909 1.13704C110.688 1.10414 123.266 3.58072 135.003 8.42446C146.74 13.2682 157.404 20.3836 166.382 29.3618C175.36 38.3399 182.475 49.0038 187.319 60.7406C192.163 72.4774 194.64 85.0557 194.607 97.7527Z" fill="white"/>
<path d="M97.9914 194.796C72.2533 194.796 47.5693 184.572 29.3697 166.372C11.1701 148.173 0.945679 123.489 0.945679 97.7505C0.943978 78.5542 6.63488 59.7885 17.2987 43.8267C27.9625 27.8649 43.1202 15.4239 60.8549 8.07701C78.5896 0.730131 98.1047 -1.19259 116.932 2.552C135.76 6.29658 153.054 15.5403 166.628 29.1141C180.202 42.6879 189.445 59.9821 193.19 78.8096C196.934 97.6371 195.012 117.152 187.665 134.887C180.318 152.622 167.877 167.779 151.915 178.443C135.953 189.107 117.188 194.798 97.9914 194.796V194.796ZM97.9914 1.56477C78.9677 1.56477 60.3711 7.20596 44.5535 17.775C28.7358 28.344 16.4075 43.3661 9.1274 60.9418C1.84733 78.5174 -0.0574587 97.8572 3.65389 116.515C7.36523 135.174 16.526 152.312 29.9778 165.764C43.4296 179.216 60.5683 188.377 79.2265 192.088C97.8847 195.799 117.224 193.895 134.8 186.614C152.376 179.334 167.398 167.006 177.967 151.188C188.536 135.371 194.177 116.774 194.177 97.7505C194.141 72.2516 183.995 47.8075 165.965 29.7771C147.934 11.7467 123.49 1.60117 97.9914 1.56477V1.56477Z" fill="#393A3E"/>
<path d="M114.46 161.637C114.363 161.636 114.27 161.603 114.194 161.543C114.105 161.472 114.048 161.368 114.035 161.256C114.022 161.143 114.055 161.03 114.125 160.941C114.336 160.48 114.517 160.006 114.667 159.521C116.051 155.6 119.689 145.288 127.825 146.819C128.35 144.867 130.921 136.662 137.75 133.669C142.145 131.734 147.382 132.405 153.316 135.664C153.747 132.998 155.948 122.6 164.566 116.305C171.274 111.411 180.227 110.078 191.227 112.357C191.282 112.369 191.335 112.391 191.381 112.422C191.428 112.454 191.468 112.495 191.499 112.542C191.531 112.589 191.552 112.642 191.563 112.697C191.574 112.753 191.573 112.81 191.562 112.865C191.535 112.976 191.467 113.073 191.371 113.135C191.275 113.198 191.159 113.221 191.046 113.2C180.339 110.973 171.609 112.254 165.108 117.002C155.518 124.002 154.125 136.266 154.116 136.387C154.108 136.459 154.083 136.527 154.043 136.587C154.002 136.647 153.948 136.696 153.884 136.731C153.821 136.765 153.75 136.782 153.678 136.782C153.606 136.782 153.535 136.765 153.471 136.731C147.563 133.359 142.403 132.594 138.128 134.469C130.913 137.634 128.616 147.369 128.599 147.438C128.574 147.548 128.506 147.644 128.41 147.705C128.313 147.766 128.196 147.788 128.083 147.765C120.395 145.967 116.972 155.677 115.518 159.805C115.36 160.388 115.129 160.949 114.83 161.474C114.786 161.529 114.73 161.572 114.665 161.601C114.601 161.629 114.531 161.642 114.46 161.637V161.637Z" fill="#939393"/>
<path d="M107.658 124.868H87.8429L85.4606 115.348H110.04L107.658 124.868Z" fill="white"/>
<path d="M75.5365 85.625C75.5365 85.625 65.1473 92.1182 61.5352 102.946C57.9231 113.774 66.1536 134.681 66.1536 134.681L85.0742 114.195L75.5365 85.625Z" fill="white"/>
<path d="M120.446 85.625C120.446 85.625 130.836 92.1182 134.448 102.946C138.06 113.774 129.829 134.681 129.829 134.681L110.909 114.195L120.446 85.625Z" fill="white"/>
<path d="M95.3516 17.9213C87.5832 24.11 81.5064 32.1631 77.6866 41.3313H117.816C113.996 32.1631 107.919 24.11 100.151 17.9213C99.4636 17.3899 98.6196 17.1016 97.7511 17.1016C96.8825 17.1016 96.0386 17.3899 95.3516 17.9213V17.9213Z" fill="white"/>
<path d="M112.851 114.802H112.714C112.607 114.765 112.519 114.687 112.469 114.586C112.42 114.485 112.412 114.368 112.447 114.26C115.121 105.76 117.284 97.1069 118.923 88.3478C118.933 88.2913 118.955 88.2374 118.986 88.1891C119.017 88.1409 119.057 88.0992 119.104 88.0664C119.151 88.0337 119.204 88.0105 119.26 87.9983C119.316 87.9861 119.374 87.985 119.431 87.9952C119.487 88.0054 119.541 88.0265 119.589 88.0575C119.638 88.0885 119.679 88.1288 119.712 88.1759C119.745 88.223 119.768 88.2761 119.78 88.3322C119.792 88.3882 119.793 88.4461 119.783 88.5026C118.144 97.3017 115.97 105.993 113.273 114.527C113.242 114.612 113.184 114.685 113.108 114.735C113.032 114.784 112.942 114.808 112.851 114.802Z" fill="white"/>
<path d="M78.2781 171.462H78.2093C78.0965 171.449 77.9935 171.392 77.9226 171.303C77.8517 171.215 77.8187 171.102 77.8308 170.989C77.8308 170.808 79.8261 153.504 71.9138 146.237C68.6973 143.279 64.2338 142.358 58.6436 143.502C58.5822 143.517 58.5182 143.517 58.4568 143.502C58.3955 143.487 58.3386 143.458 58.291 143.416C58.2411 143.379 58.2005 143.331 58.1722 143.276C58.1438 143.221 58.1286 143.16 58.1276 143.098C58.1276 142.935 57.5771 126.758 47.3686 119.937C41.4 115.947 33.2985 115.844 23.2878 119.654C23.2156 119.679 23.1379 119.686 23.0624 119.672C22.987 119.659 22.9164 119.626 22.8578 119.576C22.7993 119.524 22.7552 119.458 22.7296 119.385C22.704 119.311 22.6978 119.232 22.7116 119.155C22.7116 119.086 24.2424 112.034 20.3551 108.284C17.6546 105.704 12.976 105.231 6.457 106.942C6.40221 106.958 6.34485 106.962 6.2884 106.955C6.23194 106.947 6.17756 106.929 6.12853 106.9C6.0795 106.871 6.03685 106.832 6.00314 106.786C5.96942 106.741 5.94535 106.688 5.93238 106.633C5.90337 106.523 5.91871 106.407 5.97507 106.309C6.03142 106.21 6.12425 106.138 6.23339 106.108C13.062 104.319 18.0158 104.844 20.9571 107.673C24.3972 111.028 23.993 116.566 23.692 118.587C33.6511 114.941 41.7526 115.147 47.8502 119.232C53.3888 122.948 56.1237 129.234 57.4395 133.853C58.2457 136.694 58.7558 139.61 58.9618 142.556C64.6122 141.507 69.1617 142.556 72.4987 145.601C80.7291 153.169 78.7769 170.352 78.6909 171.075C78.6805 171.178 78.633 171.275 78.5571 171.346C78.4812 171.417 78.382 171.458 78.2781 171.462Z" fill="#939393"/>
<path d="M163.189 169.054C144.524 186.12 119.911 195.187 94.6345 194.307C69.3585 193.428 45.4351 182.672 28.0012 164.35C28.629 164.023 29.274 163.722 29.9362 163.49C46.9562 156.609 56.2101 170.791 56.2101 170.791C56.2101 170.791 60.6479 147.355 87.67 147.355C114.692 147.355 120.979 165.794 120.979 165.794C120.979 165.794 126.526 154.614 138.739 155.423C150.951 156.231 152.8 171.488 152.8 171.488C156.072 170.009 159.601 169.183 163.189 169.054V169.054Z" fill="white"/>
<path d="M28.3275 164.697C28.3647 164.736 28.402 164.776 28.4393 164.815C28.9123 164.592 30.2797 164.043 30.7355 163.871C37.6502 161.068 44.0746 161.446 49.8368 164.886C52.4419 166.46 54.703 168.542 56.4848 171.01C56.5317 171.082 56.599 171.138 56.678 171.171C56.7571 171.204 56.8443 171.213 56.9284 171.197C57.0126 171.18 57.0898 171.139 57.1502 171.078C57.2106 171.017 57.2515 170.939 57.2675 170.855C57.3449 170.606 61.9804 147.763 88.3489 147.763C114.509 147.763 121.081 165.446 121.251 165.902L121.254 165.91C121.28 165.991 121.33 166.063 121.397 166.115C121.465 166.167 121.547 166.197 121.632 166.202C121.717 166.205 121.8 166.184 121.873 166.142C121.946 166.099 122.006 166.036 122.045 165.961C122.096 165.858 127.601 155.091 139.392 155.83C144.285 156.157 148.052 158.849 150.632 163.897C151.829 166.296 152.644 168.867 153.049 171.517C153.059 171.585 153.084 171.65 153.123 171.707C153.161 171.763 153.213 171.81 153.273 171.844C153.334 171.876 153.401 171.892 153.47 171.892C153.539 171.892 153.607 171.876 153.668 171.844C156.51 170.571 161.013 169.654 164.117 169.419C164.181 169.358 164.225 169.28 164.243 169.194C164.261 169.108 164.254 169.018 164.221 168.937C164.185 168.857 164.128 168.789 164.054 168.742C163.981 168.695 163.895 168.67 163.808 168.67C160.357 168.796 156.958 169.542 153.771 170.872C153.273 168.034 150.452 155.701 139.4 155.005C128.977 154.342 123.24 162.255 121.675 164.835C120.024 161.205 112 146.938 88.3059 146.938C64.3283 146.938 57.8437 165.42 56.6482 169.806C54.8895 167.572 52.7459 165.67 50.3184 164.19C46.1817 161.687 39.3702 159.468 30.4087 163.106C29.737 163.376 29.0797 163.68 28.4393 164.018C28.3794 164.047 28.3276 164.09 28.2886 164.144C28.2496 164.198 28.2245 164.261 28.2157 164.327C28.2042 164.393 28.2083 164.461 28.2277 164.525C28.2471 164.59 28.2813 164.648 28.3275 164.697Z" fill="#393A3E"/>
<path d="M131.189 173.729C131.128 173.729 131.068 173.717 131.013 173.691C130.958 173.666 130.91 173.629 130.87 173.583C125.332 167.468 120.55 165.937 117.463 165.731C115.617 165.562 113.761 165.914 112.105 166.746C112.008 166.794 111.897 166.804 111.794 166.775C111.69 166.745 111.601 166.677 111.545 166.586C111.489 166.494 111.469 166.384 111.49 166.278C111.511 166.172 111.571 166.078 111.657 166.014C111.743 165.963 120.438 160.777 131.507 173.007C131.56 173.069 131.595 173.146 131.607 173.227C131.619 173.309 131.607 173.392 131.574 173.467C131.541 173.543 131.487 173.607 131.419 173.654C131.351 173.7 131.271 173.726 131.189 173.729V173.729Z" fill="#393A3E"/>
<path d="M150.746 153.456C150.638 153.457 150.534 153.416 150.454 153.343C150.374 153.269 150.325 153.169 150.316 153.061C150.316 152.717 149.749 144.701 155.477 139.128C159.691 135.017 166.158 133.375 174.69 134.26C174.746 134.266 174.801 134.283 174.851 134.31C174.901 134.336 174.945 134.373 174.981 134.417C175.017 134.461 175.044 134.511 175.06 134.566C175.077 134.62 175.082 134.677 175.077 134.733C175.071 134.79 175.054 134.845 175.028 134.895C175.001 134.945 174.964 134.989 174.92 135.025C174.876 135.061 174.826 135.088 174.771 135.104C174.717 135.121 174.66 135.126 174.604 135.12C166.339 134.26 160.104 135.826 156.079 139.747C150.643 145.045 151.176 152.923 151.185 153C151.19 153.057 151.183 153.114 151.166 153.168C151.149 153.222 151.121 153.272 151.084 153.315C151.047 153.358 151.002 153.394 150.952 153.419C150.901 153.445 150.846 153.461 150.789 153.465L150.746 153.456Z" fill="#939393"/>
<circle cx="50.4318" cy="36.6204" r="11.8665" fill="#C4C9D2"/>
<g filter="url(#filter0_i_9016_153968)">
<circle cx="49.1453" cy="29.9936" r="1.68108" fill="#9DA5B5"/>
</g>
<g filter="url(#filter1_i_9016_153968)">
<circle cx="46.0802" cy="39.3876" r="4.15327" fill="#9DA5B5"/>
</g>
<g filter="url(#filter2_i_9016_153968)">
<circle cx="56.3639" cy="38.5984" r="2.57107" fill="#9DA5B5"/>
</g>
<path d="M36.1294 136.88C36.0488 136.88 35.9697 136.858 35.9013 136.815C35.8329 136.773 35.7778 136.712 35.7423 136.639C25.422 115.139 10.3113 121.873 10.1651 121.941C10.0613 121.991 9.94227 121.996 9.83421 121.958C9.72615 121.919 9.63789 121.839 9.58885 121.735C9.53981 121.631 9.53401 121.512 9.57272 121.404C9.61142 121.296 9.69147 121.208 9.79526 121.159C9.95006 121.09 25.8004 113.969 36.5164 136.261C36.5413 136.312 36.556 136.367 36.5596 136.423C36.5631 136.48 36.5555 136.537 36.5371 136.59C36.5187 136.644 36.49 136.693 36.4525 136.735C36.415 136.778 36.3695 136.812 36.3186 136.837C36.2603 136.868 36.1951 136.883 36.1294 136.88V136.88Z" fill="#939393"/>
</g>
<defs>
<filter id="filter0_i_9016_153968" x="47.4642" y="28.3125" width="3.36218" height="3.56106" filterUnits="userSpaceOnUse" color-interpolation-filters="sRGB">
<feFlood flood-opacity="0" result="BackgroundImageFix"/>
<feBlend mode="normal" in="SourceGraphic" in2="BackgroundImageFix" result="shape"/>
<feColorMatrix in="SourceAlpha" type="matrix" values="0 0 0 0 0 0 0 0 0 0 0 0 0 0 0 0 0 0 127 0" result="hardAlpha"/>
<feOffset dy="0.197775"/>
<feGaussianBlur stdDeviation="0.395549"/>
<feComposite in2="hardAlpha" operator="arithmetic" k2="-1" k3="1"/>
<feColorMatrix type="matrix" values="0 0 0 0 0 0 0 0 0 0 0 0 0 0 0 0 0 0 0.25 0"/>
<feBlend mode="normal" in2="shape" result="effect1_innerShadow_9016_153968"/>
</filter>
<filter id="filter1_i_9016_153968" x="41.9269" y="35.2344" width="8.30652" height="8.50246" filterUnits="userSpaceOnUse" color-interpolation-filters="sRGB">
<feFlood flood-opacity="0" result="BackgroundImageFix"/>
<feBlend mode="normal" in="SourceGraphic" in2="BackgroundImageFix" result="shape"/>
<feColorMatrix in="SourceAlpha" type="matrix" values="0 0 0 0 0 0 0 0 0 0 0 0 0 0 0 0 0 0 127 0" result="hardAlpha"/>
<feOffset dy="0.197775"/>
<feGaussianBlur stdDeviation="0.395549"/>
<feComposite in2="hardAlpha" operator="arithmetic" k2="-1" k3="1"/>
<feColorMatrix type="matrix" values="0 0 0 0 0 0 0 0 0 0 0 0 0 0 0 0 0 0 0.25 0"/>
<feBlend mode="normal" in2="shape" result="effect1_innerShadow_9016_153968"/>
</filter>
<filter id="filter2_i_9016_153968" x="53.7928" y="36.0273" width="5.14215" height="5.3384" filterUnits="userSpaceOnUse" color-interpolation-filters="sRGB">
<feFlood flood-opacity="0" result="BackgroundImageFix"/>
<feBlend mode="normal" in="SourceGraphic" in2="BackgroundImageFix" result="shape"/>
<feColorMatrix in="SourceAlpha" type="matrix" values="0 0 0 0 0 0 0 0 0 0 0 0 0 0 0 0 0 0 127 0" result="hardAlpha"/>
<feOffset dy="0.197775"/>
<feGaussianBlur stdDeviation="0.395549"/>
<feComposite in2="hardAlpha" operator="arithmetic" k2="-1" k3="1"/>
<feColorMatrix type="matrix" values="0 0 0 0 0 0 0 0 0 0 0 0 0 0 0 0 0 0 0.25 0"/>
<feBlend mode="normal" in2="shape" result="effect1_innerShadow_9016_153968"/>
</filter>
<clipPath id="clip0_9016_153968">
<rect x="0.945679" y="0.6875" width="194.109" height="194.109" rx="97.0543" fill="white"/>
</clipPath>
</defs>
</svg>
