<svg width="180" height="43" viewBox="0 0 180 43" fill="none" xmlns="http://www.w3.org/2000/svg">
<g clip-path="url(#clip0_8949_128825)">
<path d="M30.8594 21.6681C30.841 21.6844 30.8271 21.7042 30.8011 21.7139L25.6523 23.6191C24.4985 24.0461 23.5889 24.9557 23.1619 26.1095L21.2567 31.2582C21.19 31.4384 20.9353 31.4384 20.8686 31.2582L18.9634 26.1095C18.5364 24.9557 17.6268 24.0461 16.473 23.6191L11.3242 21.7139C11.1441 21.6472 11.1441 21.3925 11.3242 21.3258L16.473 19.4205C17.6268 18.9936 18.5364 18.0839 18.9634 16.9302L20.8686 11.7814C20.8802 11.7504 20.9026 11.7318 20.9234 11.7115V1.10938C20.826 1.14591 20.7405 1.21912 20.6975 1.33511L16.1255 13.691C15.6297 15.0307 14.5735 16.0869 13.2338 16.5826L0.878086 21.1547C0.539183 21.2801 0.539183 21.7594 0.878086 21.8849L13.2339 26.457C14.5737 26.9527 15.6299 28.009 16.1256 29.3487L20.6977 41.7045C20.823 42.0434 21.3024 42.0434 21.4279 41.7045L26 29.3487C26.4957 28.009 27.5519 26.9527 28.8917 26.457L41.2475 21.8849C41.3598 21.8434 41.4312 21.7617 41.4692 21.6681H30.8597H30.8594Z" fill="#CC2128"/>
<path d="M32.2876 4.16034L33.7692 8.16406C33.8896 8.48945 34.1461 8.74593 34.4715 8.86637L38.4752 10.3479C38.5744 10.3846 38.5744 10.5248 38.4752 10.5615L34.4715 12.043C34.1461 12.1635 33.8896 12.42 33.7692 12.7453L32.2876 16.7491C32.2509 16.8483 32.1108 16.8483 32.0741 16.7491L30.5925 12.7453C30.4721 12.42 30.2156 12.1635 29.8902 12.043L25.8865 10.5615C25.7873 10.5248 25.7873 10.3846 25.8865 10.3479L29.8902 8.86637C30.2156 8.74593 30.4721 8.48945 30.5925 8.16406L32.0741 4.16034C32.1108 4.06114 32.2509 4.06114 32.2876 4.16034Z" fill="#CC2128"/>
<path d="M38.6028 27.1063L39.4721 29.4559C39.5939 29.785 39.8534 30.0445 40.1825 30.1662L42.5321 31.0356C42.6374 31.0747 42.6374 31.2236 42.5321 31.2626L40.1825 32.1319C39.8534 32.2537 39.5939 32.5132 39.4721 32.8423L38.6028 35.1919C38.5637 35.2972 38.4147 35.2972 38.3758 35.1919L37.5064 32.8423C37.3847 32.5132 37.1252 32.2537 36.7961 32.1319L34.4465 31.2626C34.3412 31.2235 34.3412 31.0745 34.4465 31.0356L36.7961 30.1662C37.1252 30.0445 37.3847 29.785 37.5064 29.4559L38.3758 27.1063C38.4149 27.001 38.5638 27.001 38.6028 27.1063Z" fill="#CC2128"/>
<path d="M59.8896 23.3778V24.72C59.8896 27.6705 59.8989 30.3153 59.9418 32.6327L62.5291 32.8994C62.7343 32.9205 62.8902 33.0935 62.8902 33.2998V34.4019H52.8561V32.9367L55.7938 32.6308C55.8443 30.0404 55.8452 27.3968 55.8452 24.7314V23.3778C55.8452 20.7181 55.8443 18.0371 55.7912 15.37H51.5208L50.0747 17.9967L49.3368 19.3859C49.0702 19.3859 48.8567 19.1654 48.8651 18.8989L49.0306 13.707H66.7157L66.8706 18.8998C66.8785 19.1658 66.6651 19.3858 66.399 19.3858L65.4636 17.7599L64.2126 15.3699H59.9429C59.8903 17.9948 59.8894 20.6751 59.8894 23.3776L59.8896 23.3778ZM79.856 26.5122H70.3335C70.4802 30.0887 72.3708 31.8554 74.9813 31.8554C76.6229 31.8554 77.758 31.2144 78.7171 30.265C78.9114 30.0727 79.222 30.0657 79.4276 30.246L79.9518 30.7059C78.7486 33.035 76.6262 34.3358 73.6956 34.3358C69.3322 34.3358 66.355 31.4003 66.355 26.5099C66.355 21.5193 69.9886 18.5207 73.937 18.5207C77.6082 18.5207 80.0516 21.0249 80.0516 24.7996C80.0516 25.494 79.9809 26.0493 79.856 26.5121V26.5122ZM76.4765 23.2563C76.4765 21.3408 75.2424 20.0276 73.7008 20.0276C72.1918 20.0276 70.6044 21.3369 70.3574 25.0305H74.6128C76.1103 25.0305 76.4765 24.3931 76.4765 23.2563ZM89.8893 24.825L88.6555 24.4363C86.5227 23.7251 85.9033 23.1605 85.9033 22.0314C85.9033 20.8128 86.867 20.085 88.5266 20.085C89.4949 20.085 90.2303 20.2914 90.9977 20.7246L92.0447 22.3983L92.4116 23.0766C92.7852 23.0766 93.0933 22.784 93.1126 22.4109L93.2485 19.7884C91.7696 18.9774 90.3678 18.521 88.6035 18.521C84.7627 18.521 82.654 20.6797 82.654 23.2465C82.654 25.4823 84.0825 26.8935 86.4281 27.6669L87.9894 28.1744C90.0003 28.8345 90.7531 29.4979 90.7531 30.6562C90.7531 31.9994 89.6985 32.772 87.6057 32.772C86.4584 32.772 85.5228 32.5167 84.5974 32.0263L83.7366 30.577L83.0676 29.4067C82.7633 29.4067 82.5172 29.6543 82.519 29.9586L82.5374 33.0246C84.1229 33.8962 85.6704 34.336 87.5662 34.336C91.7656 34.336 94.1139 32.3293 94.1139 29.5169C94.1139 27.3883 92.9286 25.842 89.8893 24.825ZM104.567 31.8249C104.074 32.1245 103.633 32.2726 103.156 32.2726C102.164 32.2726 101.49 31.5976 101.49 30.0556V20.8464H105.268V18.9607H101.524L101.647 14.6494H99.6575C99.3513 14.6494 99.0825 14.8535 99.0004 15.1486L97.9507 18.9151L95.8274 19.1893C95.5962 19.2191 95.4229 19.4161 95.4229 19.6494V20.8464H97.734V27.515C97.734 28.7316 97.7028 29.4785 97.7028 30.3988C97.7028 33.1443 99.2044 34.336 101.701 34.336C103.627 34.336 104.997 33.583 105.8 32.2871L105.479 31.9424C105.244 31.6889 104.863 31.6454 104.567 31.8249H104.567ZM120.756 13.7071H113.941V15.1726L116.566 15.4585C116.617 18.0964 116.618 20.7475 116.618 23.3778V24.7314C116.618 27.4036 116.617 30.0539 116.566 32.6507L114.641 32.8604C114.243 32.9037 113.941 33.2403 113.941 33.6411V34.4019H123.569V33.6411C123.569 33.2403 123.267 32.9037 122.868 32.8604L120.714 32.6257C120.664 30.025 120.662 27.3819 120.662 24.5996H125.768V24.0272C125.768 23.4369 125.29 22.9584 124.699 22.9584H120.662C120.662 20.398 120.666 17.8591 120.716 15.37H127.688L128.806 17.6094L129.522 19.1685C129.774 19.1685 129.975 18.9588 129.965 18.7069L129.765 13.7071H120.756ZM139.111 33.0398L137.454 32.7316C137.419 31.1047 137.402 29.4779 137.402 27.8509V16.2145L137.511 12.3688C137.521 12.0291 137.347 11.7104 137.055 11.5352L131.389 12.9389V13.5995C131.389 13.9121 131.62 14.1769 131.93 14.2196L133.647 14.457V27.8508C133.647 29.4734 133.629 31.0962 133.595 32.7188L131.934 33.0375C131.664 33.0894 131.469 33.3255 131.469 33.6004V34.4019H139.579V33.6031C139.579 33.327 139.382 33.0901 139.111 33.0396L139.111 33.0398ZM155.865 32.0187L156.192 32.2965C155.443 33.7452 154.464 34.2767 152.98 34.2767C151.325 34.2767 150.248 33.4015 149.892 31.9394C148.35 33.5065 147.334 34.336 145.354 34.336C143.008 34.336 141.22 32.9685 141.22 30.3909C141.22 28.4035 142.304 26.9195 146.805 25.4597C147.602 25.2007 148.697 24.8851 149.775 24.607V23.719C149.775 20.8107 149.073 20.0276 147.048 20.0276C146.596 20.0276 146.097 20.063 145.49 20.1836L143.43 24.0293C142.45 24.0293 141.492 23.1703 141.338 22.2644C141.64 19.0267 144.458 18.5208 148.276 18.5208C151.89 18.5208 153.461 20.1014 153.461 24.1582V30.9661C153.461 31.969 153.806 32.3652 154.386 32.3652C154.689 32.3652 154.926 32.2532 155.165 32.0235C155.356 31.8393 155.663 31.8468 155.865 32.0187ZM149.774 30.7822V25.8673C148.916 26.1166 148.115 26.385 147.586 26.6119C145.489 27.4519 144.867 28.5687 144.867 29.7594C144.867 31.3669 145.822 32.0565 147.062 32.0565C147.871 32.0565 148.419 31.7523 149.774 30.7821V30.7822ZM164.407 33.0081L163.105 32.7438C163.074 31.1942 163.058 29.208 163.058 27.8509V23.7219L163.139 19.9476C163.147 19.5765 162.962 19.2278 162.65 19.0267L157.012 21.0014V21.4554C157.012 21.8591 157.312 22.1996 157.713 22.2498L159.249 22.4426C159.311 23.6902 159.343 24.6573 159.343 26.3731V27.8508C159.343 29.2021 159.328 31.1768 159.297 32.7234L157.845 33.0104C157.503 33.0779 157.256 33.3782 157.256 33.7271V34.4018H164.992V33.724C164.992 33.3764 164.747 33.0772 164.407 33.0081ZM178.136 19.2269C177.802 19.0947 177.433 19.0267 177.05 19.0267C175.41 19.0267 173.622 20.462 172.7 23.1333L172.396 19.5552C172.385 19.4259 172.315 19.309 172.206 19.2387L172.054 19.141C171.942 19.0691 171.803 19.0544 171.679 19.1015L166.66 21.0016V22.162L168.858 22.4429C168.921 23.6905 168.952 24.4861 168.952 26.2017V27.8509C168.952 29.2064 168.937 31.1893 168.906 32.7381L167.412 33.0292C167.121 33.0861 166.91 33.3415 166.91 33.6386V33.9836C166.91 34.2148 167.098 34.4022 167.329 34.4022H168.858H172.801H174.871C175.103 34.4022 175.29 34.2148 175.29 33.9836V33.6386C175.29 33.3415 175.079 33.0861 174.788 33.0292L172.751 32.6324C172.722 31.1001 172.707 29.1758 172.707 27.8511V25.6476C173.221 23.7909 174.172 22.344 175.447 21.4277L178.808 22.6685C179.9 21.6668 179.513 19.7731 178.136 19.227L178.136 19.2269Z" fill="#CC2128"/>
<path d="M161.185 9.56978L162.258 12.4704C162.284 12.5399 162.339 12.5947 162.408 12.6204L165.309 13.6936C165.366 13.7146 165.366 13.7946 165.309 13.8156L162.408 14.8889C162.339 14.9146 162.284 14.9694 162.258 15.0389L161.185 17.9394C161.164 17.996 161.084 17.996 161.063 17.9394L159.99 15.0389C159.964 14.9694 159.909 14.9146 159.84 14.8889L156.939 13.8156C156.883 13.7946 156.883 13.7146 156.939 13.6936L159.84 12.6204C159.909 12.5947 159.964 12.5399 159.99 12.4704L161.063 9.56978C161.084 9.5132 161.164 9.5132 161.185 9.56978Z" fill="#231F20"/>
</g>
<defs>
<clipPath id="clip0_8949_128825">
<rect width="180" height="43" fill="white"/>
</clipPath>
</defs>
</svg>
