<svg width="229" height="123" viewBox="0 0 229 123" fill="none" xmlns="http://www.w3.org/2000/svg">
<mask id="path-1-inside-1_9016_158293" fill="white">
<path d="M229 0V80H0V0H229Z"/>
</mask>
<path d="M0 80H1V0H0H-1V80H0Z" fill="#D9D9D9" mask="url(#path-1-inside-1_9016_158293)"/>
<path fill-rule="evenodd" clip-rule="evenodd" d="M225 0C227.209 0 229 1.79086 229 4V8.30779C229 10.5169 227.209 12.3078 225 12.3078H4C1.79086 12.3078 0 10.5169 0 8.30779V4C0 1.79086 1.79086 0 4 0H225Z" fill="#EA4847"/>
<path fill-rule="evenodd" clip-rule="evenodd" d="M185.415 30.7699C187.624 30.7699 189.415 32.5608 189.415 34.7699V39.0777C189.415 41.2869 187.624 43.0777 185.415 43.0777H4.79265C2.58351 43.0777 0.792648 41.2869 0.792648 39.0777V34.7699C0.792648 32.5608 2.58351 30.7699 4.79265 30.7699H185.415Z" fill="#EDC812"/>
<path fill-rule="evenodd" clip-rule="evenodd" d="M167.564 62.7699C169.774 62.7699 171.564 64.5608 171.564 66.7699V71.0777C171.564 73.2869 169.774 75.0777 167.564 75.0777H4.71794C2.5088 75.0777 0.717941 73.2869 0.717941 71.0777V66.7699C0.717941 64.5608 2.5088 62.7699 4.71794 62.7699H167.564Z" fill="#22C06D"/>
<path d="M3.598 98V88.956H3.388L1.484 92.442H0.252L2.59 88.2H4.732V98H3.598ZM10.3316 98.196C9.2209 98.196 8.33423 97.8693 7.67156 97.216C7.01823 96.5533 6.69156 95.564 6.69156 94.248V91.952C6.69156 90.6453 7.01823 89.6607 7.67156 88.998C8.33423 88.3353 9.2209 88.004 10.3316 88.004C11.4516 88.004 12.3382 88.3353 12.9916 88.998C13.6542 89.6607 13.9856 90.6453 13.9856 91.952V94.248C13.9856 95.564 13.6542 96.5533 12.9916 97.216C12.3382 97.8693 11.4516 98.196 10.3316 98.196ZM10.3316 97.174C11.1716 97.174 11.8016 96.922 12.2216 96.418C12.6416 95.914 12.8516 95.2093 12.8516 94.304V91.882C12.8516 90.9767 12.6369 90.2767 12.2076 89.782C11.7782 89.278 11.1529 89.026 10.3316 89.026C9.51023 89.026 8.8849 89.278 8.45556 89.782C8.03556 90.286 7.82556 90.986 7.82556 91.882V94.304C7.82556 95.2187 8.03556 95.928 8.45556 96.432C8.87556 96.9267 9.5009 97.174 10.3316 97.174Z" fill="#939393"/>
<path d="M51.242 98V96.978C51.242 96.278 51.3633 95.718 51.606 95.298C51.858 94.878 52.2033 94.542 52.642 94.29C53.09 94.0287 53.622 93.8047 54.238 93.618L55.008 93.38C55.428 93.2493 55.7967 93.0907 56.114 92.904C56.4313 92.708 56.6787 92.4653 56.856 92.176C57.0333 91.8773 57.122 91.5133 57.122 91.084V91.028C57.122 90.412 56.9073 89.9267 56.478 89.572C56.0487 89.208 55.498 89.026 54.826 89.026C54.1167 89.026 53.538 89.2173 53.09 89.6C52.642 89.9733 52.418 90.5427 52.418 91.308V91.504H51.298V91.322C51.298 90.6127 51.452 90.0107 51.76 89.516C52.068 89.0213 52.488 88.648 53.02 88.396C53.552 88.1347 54.154 88.004 54.826 88.004C55.498 88.004 56.0907 88.13 56.604 88.382C57.1267 88.634 57.5327 88.984 57.822 89.432C58.1113 89.88 58.256 90.4027 58.256 91V91.126C58.256 91.7607 58.13 92.288 57.878 92.708C57.626 93.1187 57.276 93.4547 56.828 93.716C56.3893 93.9773 55.8713 94.2013 55.274 94.388L54.518 94.626C54.042 94.7753 53.6453 94.934 53.328 95.102C53.02 95.2607 52.7867 95.466 52.628 95.718C52.4693 95.97 52.39 96.3107 52.39 96.74V96.978H58.172V98H51.242ZM63.4155 98.196C62.3049 98.196 61.4182 97.8693 60.7555 97.216C60.1022 96.5533 59.7755 95.564 59.7755 94.248V91.952C59.7755 90.6453 60.1022 89.6607 60.7555 88.998C61.4182 88.3353 62.3049 88.004 63.4155 88.004C64.5355 88.004 65.4222 88.3353 66.0755 88.998C66.7382 89.6607 67.0695 90.6453 67.0695 91.952V94.248C67.0695 95.564 66.7382 96.5533 66.0755 97.216C65.4222 97.8693 64.5355 98.196 63.4155 98.196ZM63.4155 97.174C64.2555 97.174 64.8855 96.922 65.3055 96.418C65.7255 95.914 65.9355 95.2093 65.9355 94.304V91.882C65.9355 90.9767 65.7209 90.2767 65.2915 89.782C64.8622 89.278 64.2369 89.026 63.4155 89.026C62.5942 89.026 61.9689 89.278 61.5395 89.782C61.1195 90.286 60.9095 90.986 60.9095 91.882V94.304C60.9095 95.2187 61.1195 95.928 61.5395 96.432C61.9595 96.9267 62.5849 97.174 63.4155 97.174Z" fill="#939393"/>
<path d="M108.242 98.196C107.551 98.196 106.931 98.0653 106.38 97.804C105.839 97.5427 105.409 97.1647 105.092 96.67C104.784 96.1753 104.63 95.578 104.63 94.878V94.612H105.764V94.864C105.764 95.5827 105.993 96.1473 106.45 96.558C106.907 96.9687 107.505 97.174 108.242 97.174C108.989 97.174 109.567 96.9827 109.978 96.6C110.398 96.208 110.608 95.718 110.608 95.13V95.018C110.608 94.5887 110.505 94.2433 110.3 93.982C110.095 93.7113 109.815 93.5153 109.46 93.394C109.115 93.2633 108.732 93.198 108.312 93.198H106.716V91.784L110.454 89.39V89.222H104.868V88.2H111.658V89.782L108.004 92.134V92.302H108.704C109.255 92.302 109.759 92.4047 110.216 92.61C110.683 92.806 111.051 93.1047 111.322 93.506C111.602 93.898 111.742 94.3927 111.742 94.99V95.144C111.742 95.76 111.597 96.2967 111.308 96.754C111.019 97.2113 110.613 97.566 110.09 97.818C109.567 98.07 108.951 98.196 108.242 98.196ZM116.929 98.196C115.819 98.196 114.932 97.8693 114.269 97.216C113.616 96.5533 113.289 95.564 113.289 94.248V91.952C113.289 90.6453 113.616 89.6607 114.269 88.998C114.932 88.3353 115.819 88.004 116.929 88.004C118.049 88.004 118.936 88.3353 119.589 88.998C120.252 89.6607 120.583 90.6453 120.583 91.952V94.248C120.583 95.564 120.252 96.5533 119.589 97.216C118.936 97.8693 118.049 98.196 116.929 98.196ZM116.929 97.174C117.769 97.174 118.399 96.922 118.819 96.418C119.239 95.914 119.449 95.2093 119.449 94.304V91.882C119.449 90.9767 119.235 90.2767 118.805 89.782C118.376 89.278 117.751 89.026 116.929 89.026C116.108 89.026 115.483 89.278 115.053 89.782C114.633 90.286 114.423 90.986 114.423 91.882V94.304C114.423 95.2187 114.633 95.928 115.053 96.432C115.473 96.9267 116.099 97.174 116.929 97.174Z" fill="#939393"/>
<path d="M163.058 98V95.998H157.948V94.654L162.064 88.2H164.192V94.976H165.872V95.998H164.192V98H163.058ZM159.082 94.976H163.058V88.886H162.862L159.082 94.808V94.976ZM170.73 98.196C169.619 98.196 168.733 97.8693 168.07 97.216C167.417 96.5533 167.09 95.564 167.09 94.248V91.952C167.09 90.6453 167.417 89.6607 168.07 88.998C168.733 88.3353 169.619 88.004 170.73 88.004C171.85 88.004 172.737 88.3353 173.39 88.998C174.053 89.6607 174.384 90.6453 174.384 91.952V94.248C174.384 95.564 174.053 96.5533 173.39 97.216C172.737 97.8693 171.85 98.196 170.73 98.196ZM170.73 97.174C171.57 97.174 172.2 96.922 172.62 96.418C173.04 95.914 173.25 95.2093 173.25 94.304V91.882C173.25 90.9767 173.035 90.2767 172.606 89.782C172.177 89.278 171.551 89.026 170.73 89.026C169.909 89.026 169.283 89.278 168.854 89.782C168.434 90.286 168.224 90.986 168.224 91.882V94.304C168.224 95.2187 168.434 95.928 168.854 96.432C169.274 96.9267 169.899 97.174 170.73 97.174Z" fill="#939393"/>
<path d="M215.228 98.196C214.509 98.196 213.889 98.0607 213.366 97.79C212.843 97.51 212.437 97.1273 212.148 96.642C211.859 96.1473 211.714 95.578 211.714 94.934V94.766H212.848V94.892C212.848 95.6293 213.063 96.194 213.492 96.586C213.921 96.978 214.491 97.174 215.2 97.174C215.947 97.174 216.53 96.964 216.95 96.544C217.37 96.124 217.58 95.55 217.58 94.822V94.696C217.58 93.996 217.375 93.4407 216.964 93.03C216.563 92.61 216.04 92.4 215.396 92.4C215.023 92.4 214.715 92.4607 214.472 92.582C214.229 92.694 214.038 92.8387 213.898 93.016C213.758 93.184 213.641 93.3473 213.548 93.506H212.008V88.2H218.448V89.222H213.142V92.61H213.338C213.441 92.4233 213.581 92.2413 213.758 92.064C213.945 91.8867 214.192 91.7373 214.5 91.616C214.808 91.4947 215.191 91.434 215.648 91.434C216.217 91.434 216.731 91.5647 217.188 91.826C217.655 92.0873 218.023 92.4607 218.294 92.946C218.574 93.4313 218.714 94.01 218.714 94.682V94.836C218.714 95.4987 218.574 96.082 218.294 96.586C218.014 97.09 217.613 97.4867 217.09 97.776C216.567 98.056 215.947 98.196 215.228 98.196ZM223.861 98.196C222.75 98.196 221.864 97.8693 221.201 97.216C220.548 96.5533 220.221 95.564 220.221 94.248V91.952C220.221 90.6453 220.548 89.6607 221.201 88.998C221.864 88.3353 222.75 88.004 223.861 88.004C224.981 88.004 225.868 88.3353 226.521 88.998C227.184 89.6607 227.515 90.6453 227.515 91.952V94.248C227.515 95.564 227.184 96.5533 226.521 97.216C225.868 97.8693 224.981 98.196 223.861 98.196ZM223.861 97.174C224.701 97.174 225.331 96.922 225.751 96.418C226.171 95.914 226.381 95.2093 226.381 94.304V91.882C226.381 90.9767 226.166 90.2767 225.737 89.782C225.308 89.278 224.682 89.026 223.861 89.026C223.04 89.026 222.414 89.278 221.985 89.782C221.565 90.286 221.355 90.986 221.355 91.882V94.304C221.355 95.2187 221.565 95.928 221.985 96.432C222.405 96.9267 223.03 97.174 223.861 97.174Z" fill="#939393"/>
<path fill-rule="evenodd" clip-rule="evenodd" d="M7 107.5C10.866 107.5 14 110.634 14 114.5C14 118.366 10.866 121.5 7 121.5C3.13407 121.5 0 118.366 0 114.5C0 110.634 3.13407 107.5 7 107.5Z" fill="#EA4847"/>
<path d="M21.996 119.168C20.996 119.168 20.2 118.88 19.608 118.304C19.016 117.72 18.72 116.872 18.72 115.76V113.84C18.72 112.728 19.016 111.884 19.608 111.308C20.2 110.724 20.996 110.432 21.996 110.432C22.988 110.432 23.748 110.708 24.276 111.26C24.812 111.812 25.08 112.568 25.08 113.528V113.588H24.084V113.492C24.084 112.86 23.912 112.344 23.568 111.944C23.232 111.536 22.708 111.332 21.996 111.332C21.284 111.332 20.728 111.552 20.328 111.992C19.928 112.424 19.728 113.032 19.728 113.816V115.784C19.728 116.568 19.928 117.18 20.328 117.62C20.728 118.052 21.284 118.268 21.996 118.268C22.708 118.268 23.232 118.068 23.568 117.668C23.912 117.26 24.084 116.74 24.084 116.108V115.916H25.08V116.072C25.08 117.032 24.812 117.788 24.276 118.34C23.748 118.892 22.988 119.168 21.996 119.168ZM26.6952 119V113.132H27.6192V113.852H27.7872C27.8912 113.596 28.0512 113.408 28.2672 113.288C28.4832 113.168 28.7672 113.108 29.1192 113.108H29.8152V113.972H29.0592C28.6352 113.972 28.2912 114.092 28.0272 114.332C27.7712 114.564 27.6432 114.928 27.6432 115.424V119H26.6952ZM31.2187 119V113.132H32.1667V119H31.2187ZM31.6987 112.22C31.4907 112.22 31.3147 112.152 31.1707 112.016C31.0347 111.88 30.9667 111.708 30.9667 111.5C30.9667 111.284 31.0347 111.108 31.1707 110.972C31.3147 110.836 31.4907 110.768 31.6987 110.768C31.9067 110.768 32.0787 110.836 32.2147 110.972C32.3507 111.108 32.4187 111.284 32.4187 111.5C32.4187 111.708 32.3507 111.88 32.2147 112.016C32.0787 112.152 31.9067 112.22 31.6987 112.22ZM36.3201 119C35.9841 119 35.7241 118.908 35.5401 118.724C35.3641 118.54 35.2761 118.288 35.2761 117.968V113.96H33.5121V113.132H35.2761V111.044H36.2241V113.132H38.1441V113.96H36.2241V117.824C36.2241 118.064 36.3401 118.184 36.5721 118.184H37.8801V119H36.3201ZM39.6796 119V113.132H40.6276V119H39.6796ZM40.1596 112.22C39.9516 112.22 39.7756 112.152 39.6316 112.016C39.4956 111.88 39.4276 111.708 39.4276 111.5C39.4276 111.284 39.4956 111.108 39.6316 110.972C39.7756 110.836 39.9516 110.768 40.1596 110.768C40.3676 110.768 40.5396 110.836 40.6756 110.972C40.8116 111.108 40.8796 111.284 40.8796 111.5C40.8796 111.708 40.8116 111.88 40.6756 112.016C40.5396 112.152 40.3676 112.22 40.1596 112.22ZM45.321 119.168C44.753 119.168 44.241 119.048 43.785 118.808C43.337 118.56 42.981 118.208 42.717 117.752C42.461 117.296 42.333 116.756 42.333 116.132V116C42.333 115.368 42.461 114.828 42.717 114.38C42.981 113.924 43.337 113.576 43.785 113.336C44.241 113.088 44.753 112.964 45.321 112.964C45.881 112.964 46.357 113.068 46.749 113.276C47.149 113.484 47.461 113.76 47.685 114.104C47.917 114.448 48.065 114.816 48.129 115.208L47.205 115.4C47.165 115.112 47.069 114.848 46.917 114.608C46.773 114.368 46.569 114.176 46.305 114.032C46.041 113.888 45.717 113.816 45.333 113.816C44.941 113.816 44.589 113.904 44.277 114.08C43.973 114.256 43.729 114.508 43.545 114.836C43.369 115.164 43.281 115.556 43.281 116.012V116.12C43.281 116.576 43.369 116.968 43.545 117.296C43.729 117.624 43.973 117.876 44.277 118.052C44.589 118.228 44.941 118.316 45.333 118.316C45.917 118.316 46.361 118.164 46.665 117.86C46.977 117.556 47.169 117.18 47.241 116.732L48.177 116.936C48.089 117.32 47.929 117.684 47.697 118.028C47.465 118.372 47.149 118.648 46.749 118.856C46.357 119.064 45.881 119.168 45.321 119.168ZM51.5929 119.168C51.1849 119.168 50.8129 119.096 50.4769 118.952C50.1409 118.808 49.8769 118.6 49.6849 118.328C49.4929 118.056 49.3969 117.724 49.3969 117.332C49.3969 116.932 49.4929 116.604 49.6849 116.348C49.8769 116.084 50.1409 115.888 50.4769 115.76C50.8129 115.624 51.1889 115.556 51.6049 115.556H53.5849V115.124C53.5849 114.708 53.4609 114.38 53.2129 114.14C52.9729 113.9 52.6129 113.78 52.1329 113.78C51.6609 113.78 51.2929 113.896 51.0289 114.128C50.7649 114.352 50.5849 114.656 50.4889 115.04L49.6009 114.752C49.6969 114.424 49.8489 114.128 50.0569 113.864C50.2649 113.592 50.5409 113.376 50.8849 113.216C51.2369 113.048 51.6569 112.964 52.1449 112.964C52.8969 112.964 53.4809 113.16 53.8969 113.552C54.3129 113.936 54.5209 114.48 54.5209 115.184V117.836C54.5209 118.076 54.6329 118.196 54.8569 118.196H55.3969V119H54.5689C54.3049 119 54.0929 118.928 53.9329 118.784C53.7729 118.632 53.6929 118.432 53.6929 118.184V118.124H53.5489C53.4609 118.276 53.3409 118.436 53.1889 118.604C53.0449 118.764 52.8449 118.896 52.5889 119C52.3329 119.112 52.0009 119.168 51.5929 119.168ZM51.7009 118.352C52.2609 118.352 52.7129 118.188 53.0569 117.86C53.4089 117.524 53.5849 117.056 53.5849 116.456V116.324H51.6409C51.2649 116.324 50.9529 116.408 50.7049 116.576C50.4649 116.736 50.3449 116.98 50.3449 117.308C50.3449 117.636 50.4689 117.892 50.7169 118.076C50.9729 118.26 51.3009 118.352 51.7009 118.352ZM56.6952 119V110.6H57.6432V119H56.6952Z" fill="#393A3E"/>
<path fill-rule="evenodd" clip-rule="evenodd" d="M98.9998 108C102.866 108 106 111.134 106 115C106 118.866 102.866 122 98.9998 122C95.1338 122 91.9998 118.866 91.9998 115C91.9998 111.134 95.1338 108 98.9998 108Z" fill="#EDC812"/>
<path d="M111.96 119V110.6H113.88L116.112 118.364H116.268L118.5 110.6H120.42V119H119.448V111.26H119.28L117.06 119H115.32L113.1 111.26H112.932V119H111.96ZM124.179 119.168C123.771 119.168 123.399 119.096 123.063 118.952C122.727 118.808 122.463 118.6 122.271 118.328C122.079 118.056 121.983 117.724 121.983 117.332C121.983 116.932 122.079 116.604 122.271 116.348C122.463 116.084 122.727 115.888 123.063 115.76C123.399 115.624 123.775 115.556 124.191 115.556H126.171V115.124C126.171 114.708 126.047 114.38 125.799 114.14C125.559 113.9 125.199 113.78 124.719 113.78C124.247 113.78 123.879 113.896 123.615 114.128C123.351 114.352 123.171 114.656 123.075 115.04L122.187 114.752C122.283 114.424 122.435 114.128 122.643 113.864C122.851 113.592 123.127 113.376 123.471 113.216C123.823 113.048 124.243 112.964 124.731 112.964C125.483 112.964 126.067 113.16 126.483 113.552C126.899 113.936 127.107 114.48 127.107 115.184V117.836C127.107 118.076 127.219 118.196 127.443 118.196H127.983V119H127.155C126.891 119 126.679 118.928 126.519 118.784C126.359 118.632 126.279 118.432 126.279 118.184V118.124H126.135C126.047 118.276 125.927 118.436 125.775 118.604C125.631 118.764 125.431 118.896 125.175 119C124.919 119.112 124.587 119.168 124.179 119.168ZM124.287 118.352C124.847 118.352 125.299 118.188 125.643 117.86C125.995 117.524 126.171 117.056 126.171 116.456V116.324H124.227C123.851 116.324 123.539 116.408 123.291 116.576C123.051 116.736 122.931 116.98 122.931 117.308C122.931 117.636 123.055 117.892 123.303 118.076C123.559 118.26 123.887 118.352 124.287 118.352ZM128.129 121.4V120.56H128.945C129.185 120.56 129.305 120.44 129.305 120.2V113.132H130.253V120.368C130.253 120.688 130.161 120.94 129.977 121.124C129.801 121.308 129.545 121.4 129.209 121.4H128.129ZM129.785 112.22C129.577 112.22 129.401 112.152 129.257 112.016C129.121 111.88 129.053 111.708 129.053 111.5C129.053 111.284 129.121 111.108 129.257 110.972C129.401 110.836 129.577 110.768 129.785 110.768C129.993 110.768 130.165 110.836 130.301 110.972C130.437 111.108 130.505 111.284 130.505 111.5C130.505 111.708 130.437 111.88 130.301 112.016C130.165 112.152 129.993 112.22 129.785 112.22ZM134.958 119.168C134.366 119.168 133.842 119.044 133.386 118.796C132.938 118.548 132.586 118.2 132.33 117.752C132.082 117.296 131.958 116.76 131.958 116.144V115.988C131.958 115.38 132.082 114.848 132.33 114.392C132.586 113.936 132.938 113.584 133.386 113.336C133.842 113.088 134.366 112.964 134.958 112.964C135.55 112.964 136.07 113.088 136.518 113.336C136.974 113.584 137.326 113.936 137.574 114.392C137.83 114.848 137.958 115.38 137.958 115.988V116.144C137.958 116.76 137.83 117.296 137.574 117.752C137.326 118.2 136.974 118.548 136.518 118.796C136.07 119.044 135.55 119.168 134.958 119.168ZM134.958 118.316C135.582 118.316 136.078 118.12 136.446 117.728C136.822 117.328 137.01 116.792 137.01 116.12V116.012C137.01 115.34 136.822 114.808 136.446 114.416C136.078 114.016 135.582 113.816 134.958 113.816C134.342 113.816 133.846 114.016 133.47 114.416C133.094 114.808 132.906 115.34 132.906 116.012V116.12C132.906 116.792 133.094 117.328 133.47 117.728C133.846 118.12 134.342 118.316 134.958 118.316ZM139.664 119V113.132H140.588V113.852H140.756C140.86 113.596 141.02 113.408 141.236 113.288C141.452 113.168 141.736 113.108 142.088 113.108H142.784V113.972H142.028C141.604 113.972 141.26 114.092 140.996 114.332C140.74 114.564 140.612 114.928 140.612 115.424V119H139.664Z" fill="#393A3E"/>
<path fill-rule="evenodd" clip-rule="evenodd" d="M184 108C187.866 108 191 111.134 191 115C191 118.866 187.866 122 184 122C180.134 122 177 118.866 177 115C177 111.134 180.134 108 184 108Z" fill="#22C06D"/>
<path d="M196.96 119V110.6H198.88L201.112 118.364H201.268L203.5 110.6H205.42V119H204.448V111.26H204.28L202.06 119H200.32L198.1 111.26H197.932V119H196.96ZM207.379 119V113.132H208.327V119H207.379ZM207.859 112.22C207.651 112.22 207.475 112.152 207.331 112.016C207.195 111.88 207.127 111.708 207.127 111.5C207.127 111.284 207.195 111.108 207.331 110.972C207.475 110.836 207.651 110.768 207.859 110.768C208.067 110.768 208.239 110.836 208.375 110.972C208.511 111.108 208.579 111.284 208.579 111.5C208.579 111.708 208.511 111.88 208.375 112.016C208.239 112.152 208.067 112.22 207.859 112.22ZM210.32 119V113.132H211.244V114.128H211.412C211.54 113.848 211.756 113.596 212.06 113.372C212.372 113.14 212.828 113.024 213.428 113.024C213.868 113.024 214.26 113.116 214.604 113.3C214.956 113.484 215.236 113.756 215.444 114.116C215.652 114.476 215.756 114.92 215.756 115.448V119H214.808V115.52C214.808 114.936 214.66 114.512 214.364 114.248C214.076 113.984 213.684 113.852 213.188 113.852C212.62 113.852 212.156 114.036 211.796 114.404C211.444 114.772 211.268 115.32 211.268 116.048V119H210.32ZM220.392 119.168C219.8 119.168 219.276 119.044 218.82 118.796C218.372 118.548 218.02 118.2 217.764 117.752C217.516 117.296 217.392 116.76 217.392 116.144V115.988C217.392 115.38 217.516 114.848 217.764 114.392C218.02 113.936 218.372 113.584 218.82 113.336C219.276 113.088 219.8 112.964 220.392 112.964C220.984 112.964 221.504 113.088 221.952 113.336C222.408 113.584 222.76 113.936 223.008 114.392C223.264 114.848 223.392 115.38 223.392 115.988V116.144C223.392 116.76 223.264 117.296 223.008 117.752C222.76 118.2 222.408 118.548 221.952 118.796C221.504 119.044 220.984 119.168 220.392 119.168ZM220.392 118.316C221.016 118.316 221.512 118.12 221.88 117.728C222.256 117.328 222.444 116.792 222.444 116.12V116.012C222.444 115.34 222.256 114.808 221.88 114.416C221.512 114.016 221.016 113.816 220.392 113.816C219.776 113.816 219.28 114.016 218.904 114.416C218.528 114.808 218.34 115.34 218.34 116.012V116.12C218.34 116.792 218.528 117.328 218.904 117.728C219.28 118.12 219.776 118.316 220.392 118.316ZM225.098 119V113.132H226.022V113.852H226.19C226.294 113.596 226.454 113.408 226.67 113.288C226.886 113.168 227.17 113.108 227.522 113.108H228.218V113.972H227.462C227.038 113.972 226.694 114.092 226.43 114.332C226.174 114.564 226.046 114.928 226.046 115.424V119H225.098Z" fill="#393A3E"/>
</svg>
