<svg width="229" height="123" viewBox="0 0 229 123" fill="none" xmlns="http://www.w3.org/2000/svg">
<mask id="path-1-inside-1_9016_156424" fill="white">
<path d="M229 0V80H0V0H229Z"/>
</mask>
<path d="M0 80H1V0H0H-1V80H0Z" fill="#D9D9D9" mask="url(#path-1-inside-1_9016_156424)"/>
<path fill-rule="evenodd" clip-rule="evenodd" d="M225 0C227.209 0 229 1.79086 229 4V8.30779C229 10.5169 227.209 12.3078 225 12.3078H4C1.79086 12.3078 0 10.5169 0 8.30779V4C0 1.79086 1.79086 0 4 0H225Z" fill="#EA4847"/>
<path fill-rule="evenodd" clip-rule="evenodd" d="M185.415 30.7699C187.624 30.7699 189.415 32.5608 189.415 34.7699V39.0777C189.415 41.2869 187.624 43.0777 185.415 43.0777H4.79265C2.58351 43.0777 0.792648 41.2869 0.792648 39.0777V34.7699C0.792648 32.5608 2.58351 30.7699 4.79265 30.7699H185.415Z" fill="#EDC812"/>
<path fill-rule="evenodd" clip-rule="evenodd" d="M167.564 62.7699C169.774 62.7699 171.564 64.5608 171.564 66.7699V71.0777C171.564 73.2869 169.774 75.0777 167.564 75.0777H4.71794C2.5088 75.0777 0.717941 73.2869 0.717941 71.0777V66.7699C0.717941 64.5608 2.5088 62.7699 4.71794 62.7699H167.564Z" fill="#22C06D"/>
<path d="M3.598 98V88.956H3.388L1.484 92.442H0.252L2.59 88.2H4.732V98H3.598ZM10.3316 98.196C9.2209 98.196 8.33423 97.8693 7.67156 97.216C7.01823 96.5533 6.69156 95.564 6.69156 94.248V91.952C6.69156 90.6453 7.01823 89.6607 7.67156 88.998C8.33423 88.3353 9.2209 88.004 10.3316 88.004C11.4516 88.004 12.3382 88.3353 12.9916 88.998C13.6542 89.6607 13.9856 90.6453 13.9856 91.952V94.248C13.9856 95.564 13.6542 96.5533 12.9916 97.216C12.3382 97.8693 11.4516 98.196 10.3316 98.196ZM10.3316 97.174C11.1716 97.174 11.8016 96.922 12.2216 96.418C12.6416 95.914 12.8516 95.2093 12.8516 94.304V91.882C12.8516 90.9767 12.6369 90.2767 12.2076 89.782C11.7782 89.278 11.1529 89.026 10.3316 89.026C9.51023 89.026 8.8849 89.278 8.45556 89.782C8.03556 90.286 7.82556 90.986 7.82556 91.882V94.304C7.82556 95.2187 8.03556 95.928 8.45556 96.432C8.87556 96.9267 9.5009 97.174 10.3316 97.174Z" fill="#939393"/>
<path d="M51.242 98V96.978C51.242 96.278 51.3633 95.718 51.606 95.298C51.858 94.878 52.2033 94.542 52.642 94.29C53.09 94.0287 53.622 93.8047 54.238 93.618L55.008 93.38C55.428 93.2493 55.7967 93.0907 56.114 92.904C56.4313 92.708 56.6787 92.4653 56.856 92.176C57.0333 91.8773 57.122 91.5133 57.122 91.084V91.028C57.122 90.412 56.9073 89.9267 56.478 89.572C56.0487 89.208 55.498 89.026 54.826 89.026C54.1167 89.026 53.538 89.2173 53.09 89.6C52.642 89.9733 52.418 90.5427 52.418 91.308V91.504H51.298V91.322C51.298 90.6127 51.452 90.0107 51.76 89.516C52.068 89.0213 52.488 88.648 53.02 88.396C53.552 88.1347 54.154 88.004 54.826 88.004C55.498 88.004 56.0907 88.13 56.604 88.382C57.1267 88.634 57.5327 88.984 57.822 89.432C58.1113 89.88 58.256 90.4027 58.256 91V91.126C58.256 91.7607 58.13 92.288 57.878 92.708C57.626 93.1187 57.276 93.4547 56.828 93.716C56.3893 93.9773 55.8713 94.2013 55.274 94.388L54.518 94.626C54.042 94.7753 53.6453 94.934 53.328 95.102C53.02 95.2607 52.7867 95.466 52.628 95.718C52.4693 95.97 52.39 96.3107 52.39 96.74V96.978H58.172V98H51.242ZM63.4155 98.196C62.3049 98.196 61.4182 97.8693 60.7555 97.216C60.1022 96.5533 59.7755 95.564 59.7755 94.248V91.952C59.7755 90.6453 60.1022 89.6607 60.7555 88.998C61.4182 88.3353 62.3049 88.004 63.4155 88.004C64.5355 88.004 65.4222 88.3353 66.0755 88.998C66.7382 89.6607 67.0695 90.6453 67.0695 91.952V94.248C67.0695 95.564 66.7382 96.5533 66.0755 97.216C65.4222 97.8693 64.5355 98.196 63.4155 98.196ZM63.4155 97.174C64.2555 97.174 64.8855 96.922 65.3055 96.418C65.7255 95.914 65.9355 95.2093 65.9355 94.304V91.882C65.9355 90.9767 65.7209 90.2767 65.2915 89.782C64.8622 89.278 64.2369 89.026 63.4155 89.026C62.5942 89.026 61.9689 89.278 61.5395 89.782C61.1195 90.286 60.9095 90.986 60.9095 91.882V94.304C60.9095 95.2187 61.1195 95.928 61.5395 96.432C61.9595 96.9267 62.5849 97.174 63.4155 97.174Z" fill="#939393"/>
<path d="M108.242 98.196C107.551 98.196 106.931 98.0653 106.38 97.804C105.839 97.5427 105.409 97.1647 105.092 96.67C104.784 96.1753 104.63 95.578 104.63 94.878V94.612H105.764V94.864C105.764 95.5827 105.993 96.1473 106.45 96.558C106.907 96.9687 107.505 97.174 108.242 97.174C108.989 97.174 109.567 96.9827 109.978 96.6C110.398 96.208 110.608 95.718 110.608 95.13V95.018C110.608 94.5887 110.505 94.2433 110.3 93.982C110.095 93.7113 109.815 93.5153 109.46 93.394C109.115 93.2633 108.732 93.198 108.312 93.198H106.716V91.784L110.454 89.39V89.222H104.868V88.2H111.658V89.782L108.004 92.134V92.302H108.704C109.255 92.302 109.759 92.4047 110.216 92.61C110.683 92.806 111.051 93.1047 111.322 93.506C111.602 93.898 111.742 94.3927 111.742 94.99V95.144C111.742 95.76 111.597 96.2967 111.308 96.754C111.019 97.2113 110.613 97.566 110.09 97.818C109.567 98.07 108.951 98.196 108.242 98.196ZM116.929 98.196C115.819 98.196 114.932 97.8693 114.269 97.216C113.616 96.5533 113.289 95.564 113.289 94.248V91.952C113.289 90.6453 113.616 89.6607 114.269 88.998C114.932 88.3353 115.819 88.004 116.929 88.004C118.049 88.004 118.936 88.3353 119.589 88.998C120.252 89.6607 120.583 90.6453 120.583 91.952V94.248C120.583 95.564 120.252 96.5533 119.589 97.216C118.936 97.8693 118.049 98.196 116.929 98.196ZM116.929 97.174C117.769 97.174 118.399 96.922 118.819 96.418C119.239 95.914 119.449 95.2093 119.449 94.304V91.882C119.449 90.9767 119.235 90.2767 118.805 89.782C118.376 89.278 117.751 89.026 116.929 89.026C116.108 89.026 115.483 89.278 115.053 89.782C114.633 90.286 114.423 90.986 114.423 91.882V94.304C114.423 95.2187 114.633 95.928 115.053 96.432C115.473 96.9267 116.099 97.174 116.929 97.174Z" fill="#939393"/>
<path d="M163.058 98V95.998H157.948V94.654L162.064 88.2H164.192V94.976H165.872V95.998H164.192V98H163.058ZM159.082 94.976H163.058V88.886H162.862L159.082 94.808V94.976ZM170.73 98.196C169.619 98.196 168.733 97.8693 168.07 97.216C167.417 96.5533 167.09 95.564 167.09 94.248V91.952C167.09 90.6453 167.417 89.6607 168.07 88.998C168.733 88.3353 169.619 88.004 170.73 88.004C171.85 88.004 172.737 88.3353 173.39 88.998C174.053 89.6607 174.384 90.6453 174.384 91.952V94.248C174.384 95.564 174.053 96.5533 173.39 97.216C172.737 97.8693 171.85 98.196 170.73 98.196ZM170.73 97.174C171.57 97.174 172.2 96.922 172.62 96.418C173.04 95.914 173.25 95.2093 173.25 94.304V91.882C173.25 90.9767 173.035 90.2767 172.606 89.782C172.177 89.278 171.551 89.026 170.73 89.026C169.909 89.026 169.283 89.278 168.854 89.782C168.434 90.286 168.224 90.986 168.224 91.882V94.304C168.224 95.2187 168.434 95.928 168.854 96.432C169.274 96.9267 169.899 97.174 170.73 97.174Z" fill="#939393"/>
<path d="M215.228 98.196C214.509 98.196 213.889 98.0607 213.366 97.79C212.843 97.51 212.437 97.1273 212.148 96.642C211.859 96.1473 211.714 95.578 211.714 94.934V94.766H212.848V94.892C212.848 95.6293 213.063 96.194 213.492 96.586C213.921 96.978 214.491 97.174 215.2 97.174C215.947 97.174 216.53 96.964 216.95 96.544C217.37 96.124 217.58 95.55 217.58 94.822V94.696C217.58 93.996 217.375 93.4407 216.964 93.03C216.563 92.61 216.04 92.4 215.396 92.4C215.023 92.4 214.715 92.4607 214.472 92.582C214.229 92.694 214.038 92.8387 213.898 93.016C213.758 93.184 213.641 93.3473 213.548 93.506H212.008V88.2H218.448V89.222H213.142V92.61H213.338C213.441 92.4233 213.581 92.2413 213.758 92.064C213.945 91.8867 214.192 91.7373 214.5 91.616C214.808 91.4947 215.191 91.434 215.648 91.434C216.217 91.434 216.731 91.5647 217.188 91.826C217.655 92.0873 218.023 92.4607 218.294 92.946C218.574 93.4313 218.714 94.01 218.714 94.682V94.836C218.714 95.4987 218.574 96.082 218.294 96.586C218.014 97.09 217.613 97.4867 217.09 97.776C216.567 98.056 215.947 98.196 215.228 98.196ZM223.861 98.196C222.75 98.196 221.864 97.8693 221.201 97.216C220.548 96.5533 220.221 95.564 220.221 94.248V91.952C220.221 90.6453 220.548 89.6607 221.201 88.998C221.864 88.3353 222.75 88.004 223.861 88.004C224.981 88.004 225.868 88.3353 226.521 88.998C227.184 89.6607 227.515 90.6453 227.515 91.952V94.248C227.515 95.564 227.184 96.5533 226.521 97.216C225.868 97.8693 224.981 98.196 223.861 98.196ZM223.861 97.174C224.701 97.174 225.331 96.922 225.751 96.418C226.171 95.914 226.381 95.2093 226.381 94.304V91.882C226.381 90.9767 226.166 90.2767 225.737 89.782C225.308 89.278 224.682 89.026 223.861 89.026C223.04 89.026 222.414 89.278 221.985 89.782C221.565 90.286 221.355 90.986 221.355 91.882V94.304C221.355 95.2187 221.565 95.928 221.985 96.432C222.405 96.9267 223.03 97.174 223.861 97.174Z" fill="#939393"/>
<path fill-rule="evenodd" clip-rule="evenodd" d="M7 107.5C10.866 107.5 14 110.634 14 114.5C14 118.366 10.866 121.5 7 121.5C3.13407 121.5 0 118.366 0 114.5C0 110.634 3.13407 107.5 7 107.5Z" fill="#EA4847"/>
<path d="M18.96 119V110.6H22.176C22.68 110.6 23.128 110.7 23.52 110.9C23.92 111.092 24.236 111.368 24.468 111.728C24.7 112.088 24.816 112.524 24.816 113.036V113.192C24.816 113.696 24.696 114.132 24.456 114.5C24.224 114.86 23.908 115.136 23.508 115.328C23.108 115.52 22.664 115.616 22.176 115.616H19.968V119H18.96ZM19.968 114.704H22.068C22.604 114.704 23.028 114.572 23.34 114.308C23.652 114.036 23.808 113.656 23.808 113.168V113.048C23.808 112.56 23.652 112.184 23.34 111.92C23.036 111.648 22.612 111.512 22.068 111.512H19.968V114.704ZM28.7035 119.168C28.1115 119.168 27.5915 119.044 27.1435 118.796C26.6955 118.54 26.3475 118.184 26.0995 117.728C25.8515 117.272 25.7275 116.744 25.7275 116.144V116C25.7275 115.392 25.8515 114.86 26.0995 114.404C26.3475 113.948 26.6915 113.596 27.1315 113.348C27.5715 113.092 28.0755 112.964 28.6435 112.964C29.1955 112.964 29.6835 113.084 30.1075 113.324C30.5315 113.556 30.8635 113.892 31.1035 114.332C31.3435 114.772 31.4635 115.288 31.4635 115.88V116.312H26.6755C26.6995 116.944 26.9035 117.44 27.2875 117.8C27.6715 118.152 28.1515 118.328 28.7275 118.328C29.2315 118.328 29.6195 118.212 29.8915 117.98C30.1635 117.748 30.3715 117.472 30.5155 117.152L31.3315 117.548C31.2115 117.796 31.0435 118.044 30.8275 118.292C30.6195 118.54 30.3435 118.748 29.9995 118.916C29.6635 119.084 29.2315 119.168 28.7035 119.168ZM26.6875 115.532H30.5035C30.4715 114.988 30.2835 114.564 29.9395 114.26C29.6035 113.956 29.1715 113.804 28.6435 113.804C28.1075 113.804 27.6675 113.956 27.3235 114.26C26.9795 114.564 26.7675 114.988 26.6875 115.532ZM33.1171 119V113.132H34.0411V114.128H34.2091C34.3371 113.848 34.5531 113.596 34.8571 113.372C35.1691 113.14 35.6251 113.024 36.2251 113.024C36.6651 113.024 37.0571 113.116 37.4011 113.3C37.7531 113.484 38.0331 113.756 38.2411 114.116C38.4491 114.476 38.5531 114.92 38.5531 115.448V119H37.6051V115.52C37.6051 114.936 37.4571 114.512 37.1611 114.248C36.8731 113.984 36.4811 113.852 35.9851 113.852C35.4171 113.852 34.9531 114.036 34.5931 114.404C34.2411 114.772 34.0651 115.32 34.0651 116.048V119H33.1171ZM42.9605 119.168C42.4565 119.168 41.9925 119.048 41.5685 118.808C41.1445 118.568 40.8085 118.22 40.5605 117.764C40.3125 117.308 40.1885 116.768 40.1885 116.144V115.988C40.1885 115.364 40.3125 114.828 40.5605 114.38C40.8085 113.924 41.1405 113.576 41.5565 113.336C41.9805 113.088 42.4485 112.964 42.9605 112.964C43.3685 112.964 43.7125 113.02 43.9925 113.132C44.2805 113.236 44.5125 113.372 44.6885 113.54C44.8645 113.7 45.0005 113.872 45.0965 114.056H45.2645V110.6H46.2125V119H45.2885V118.028H45.1205C44.9605 118.324 44.7125 118.588 44.3765 118.82C44.0405 119.052 43.5685 119.168 42.9605 119.168ZM43.2125 118.328C43.8205 118.328 44.3125 118.136 44.6885 117.752C45.0725 117.36 45.2645 116.816 45.2645 116.12V116.012C45.2645 115.316 45.0725 114.776 44.6885 114.392C44.3125 114 43.8205 113.804 43.2125 113.804C42.6125 113.804 42.1165 114 41.7245 114.392C41.3405 114.776 41.1485 115.316 41.1485 116.012V116.12C41.1485 116.816 41.3405 117.36 41.7245 117.752C42.1165 118.136 42.6125 118.328 43.2125 118.328ZM48.1991 119V113.132H49.1471V119H48.1991ZM48.6791 112.22C48.4711 112.22 48.2951 112.152 48.1511 112.016C48.0151 111.88 47.9471 111.708 47.9471 111.5C47.9471 111.284 48.0151 111.108 48.1511 110.972C48.2951 110.836 48.4711 110.768 48.6791 110.768C48.8871 110.768 49.0591 110.836 49.1951 110.972C49.3311 111.108 49.3991 111.284 49.3991 111.5C49.3991 111.708 49.3311 111.88 49.1951 112.016C49.0591 112.152 48.8871 112.22 48.6791 112.22ZM51.1405 119V113.132H52.0645V114.128H52.2325C52.3605 113.848 52.5765 113.596 52.8805 113.372C53.1925 113.14 53.6485 113.024 54.2485 113.024C54.6885 113.024 55.0805 113.116 55.4245 113.3C55.7765 113.484 56.0565 113.756 56.2645 114.116C56.4725 114.476 56.5765 114.92 56.5765 115.448V119H55.6285V115.52C55.6285 114.936 55.4805 114.512 55.1845 114.248C54.8965 113.984 54.5045 113.852 54.0085 113.852C53.4405 113.852 52.9765 114.036 52.6165 114.404C52.2645 114.772 52.0885 115.32 52.0885 116.048V119H51.1405ZM58.2119 116.096V115.928C58.2119 115.312 58.3359 114.784 58.5839 114.344C58.8319 113.904 59.1679 113.564 59.5919 113.324C60.0159 113.084 60.4799 112.964 60.9839 112.964C61.5999 112.964 62.0719 113.084 62.3999 113.324C62.7359 113.556 62.9839 113.816 63.1439 114.104H63.3119V113.132H64.2119V120.368C64.2119 120.688 64.1239 120.94 63.9479 121.124C63.7719 121.308 63.5159 121.4 63.1799 121.4H59.1959V120.56H62.9279C63.1679 120.56 63.2879 120.44 63.2879 120.2V117.968H63.1199C63.0239 118.144 62.8879 118.316 62.7119 118.484C62.5359 118.652 62.3079 118.792 62.0279 118.904C61.7479 119.008 61.3999 119.06 60.9839 119.06C60.4799 119.06 60.0159 118.94 59.5919 118.7C59.1679 118.46 58.8319 118.12 58.5839 117.68C58.3359 117.232 58.2119 116.704 58.2119 116.096ZM61.2359 118.22C61.8439 118.22 62.3359 118.028 62.7119 117.644C63.0959 117.26 63.2879 116.732 63.2879 116.06V115.964C63.2879 115.284 63.0959 114.756 62.7119 114.38C62.3359 113.996 61.8439 113.804 61.2359 113.804C60.6359 113.804 60.1399 113.996 59.7479 114.38C59.3639 114.756 59.1719 115.284 59.1719 115.964V116.06C59.1719 116.732 59.3639 117.26 59.7479 117.644C60.1399 118.028 60.6359 118.22 61.2359 118.22Z" fill="#393A3E"/>
<path fill-rule="evenodd" clip-rule="evenodd" d="M77.4998 108C81.3658 108 84.4998 111.134 84.4998 115C84.4998 118.866 81.3658 122 77.4998 122C73.6338 122 70.4998 118.866 70.4998 115C70.4998 111.134 73.6338 108 77.4998 108Z" fill="#EDC812"/>
<path d="M93.508 119.168C92.508 119.168 91.708 118.88 91.108 118.304C90.516 117.72 90.22 116.872 90.22 115.76V113.84C90.22 112.728 90.516 111.884 91.108 111.308C91.708 110.724 92.508 110.432 93.508 110.432C94.516 110.432 95.316 110.724 95.908 111.308C96.508 111.884 96.808 112.728 96.808 113.84V115.76C96.808 116.872 96.508 117.72 95.908 118.304C95.316 118.88 94.516 119.168 93.508 119.168ZM93.508 118.268C94.236 118.268 94.8 118.052 95.2 117.62C95.6 117.18 95.8 116.572 95.8 115.796V113.804C95.8 113.028 95.6 112.424 95.2 111.992C94.8 111.552 94.236 111.332 93.508 111.332C92.788 111.332 92.228 111.552 91.828 111.992C91.428 112.424 91.228 113.028 91.228 113.804V115.796C91.228 116.572 91.428 117.18 91.828 117.62C92.228 118.052 92.788 118.268 93.508 118.268ZM98.5233 119V113.132H99.4473V114.128H99.6153C99.7433 113.848 99.9593 113.596 100.263 113.372C100.575 113.14 101.031 113.024 101.631 113.024C102.071 113.024 102.463 113.116 102.807 113.3C103.159 113.484 103.439 113.756 103.647 114.116C103.855 114.476 103.959 114.92 103.959 115.448V119H103.011V115.52C103.011 114.936 102.863 114.512 102.567 114.248C102.279 113.984 101.887 113.852 101.391 113.852C100.823 113.852 100.359 114.036 99.9993 114.404C99.6473 114.772 99.4713 115.32 99.4713 116.048V119H98.5233ZM111.857 119.168C111.233 119.168 110.681 119.04 110.201 118.784C109.729 118.52 109.357 118.136 109.085 117.632C108.821 117.128 108.689 116.504 108.689 115.76V113.84C108.689 112.728 108.985 111.884 109.577 111.308C110.169 110.724 110.965 110.432 111.965 110.432C112.957 110.432 113.713 110.704 114.233 111.248C114.753 111.792 115.013 112.52 115.013 113.432V113.492H114.017V113.408C114.017 113.008 113.945 112.652 113.801 112.34C113.657 112.028 113.433 111.784 113.129 111.608C112.825 111.424 112.437 111.332 111.965 111.332C111.253 111.332 110.697 111.552 110.297 111.992C109.897 112.424 109.697 113.032 109.697 113.816V115.784C109.697 116.568 109.897 117.18 110.297 117.62C110.697 118.052 111.257 118.268 111.977 118.268C112.681 118.268 113.197 118.068 113.525 117.668C113.861 117.268 114.029 116.736 114.029 116.072V115.868H111.485V115.004H115.013V119H114.101V118.088H113.933C113.845 118.264 113.721 118.436 113.561 118.604C113.401 118.772 113.185 118.908 112.913 119.012C112.641 119.116 112.289 119.168 111.857 119.168ZM119.599 119.168C119.007 119.168 118.483 119.044 118.027 118.796C117.579 118.548 117.227 118.2 116.971 117.752C116.723 117.296 116.599 116.76 116.599 116.144V115.988C116.599 115.38 116.723 114.848 116.971 114.392C117.227 113.936 117.579 113.584 118.027 113.336C118.483 113.088 119.007 112.964 119.599 112.964C120.191 112.964 120.711 113.088 121.159 113.336C121.615 113.584 121.967 113.936 122.215 114.392C122.471 114.848 122.599 115.38 122.599 115.988V116.144C122.599 116.76 122.471 117.296 122.215 117.752C121.967 118.2 121.615 118.548 121.159 118.796C120.711 119.044 120.191 119.168 119.599 119.168ZM119.599 118.316C120.223 118.316 120.719 118.12 121.087 117.728C121.463 117.328 121.651 116.792 121.651 116.12V116.012C121.651 115.34 121.463 114.808 121.087 114.416C120.719 114.016 120.223 113.816 119.599 113.816C118.983 113.816 118.487 114.016 118.111 114.416C117.735 114.808 117.547 115.34 117.547 116.012V116.12C117.547 116.792 117.735 117.328 118.111 117.728C118.487 118.12 118.983 118.316 119.599 118.316ZM124.305 119V113.132H125.253V119H124.305ZM124.785 112.22C124.577 112.22 124.401 112.152 124.257 112.016C124.121 111.88 124.053 111.708 124.053 111.5C124.053 111.284 124.121 111.108 124.257 110.972C124.401 110.836 124.577 110.768 124.785 110.768C124.993 110.768 125.165 110.836 125.301 110.972C125.437 111.108 125.505 111.284 125.505 111.5C125.505 111.708 125.437 111.88 125.301 112.016C125.165 112.152 124.993 112.22 124.785 112.22ZM127.246 119V113.132H128.17V114.128H128.338C128.466 113.848 128.682 113.596 128.986 113.372C129.298 113.14 129.754 113.024 130.354 113.024C130.794 113.024 131.186 113.116 131.53 113.3C131.882 113.484 132.162 113.756 132.37 114.116C132.578 114.476 132.682 114.92 132.682 115.448V119H131.734V115.52C131.734 114.936 131.586 114.512 131.29 114.248C131.002 113.984 130.61 113.852 130.114 113.852C129.546 113.852 129.082 114.036 128.722 114.404C128.37 114.772 128.194 115.32 128.194 116.048V119H127.246ZM134.317 116.096V115.928C134.317 115.312 134.441 114.784 134.689 114.344C134.937 113.904 135.273 113.564 135.697 113.324C136.121 113.084 136.585 112.964 137.089 112.964C137.705 112.964 138.177 113.084 138.505 113.324C138.841 113.556 139.089 113.816 139.249 114.104H139.417V113.132H140.317V120.368C140.317 120.688 140.229 120.94 140.053 121.124C139.877 121.308 139.621 121.4 139.285 121.4H135.301V120.56H139.033C139.273 120.56 139.393 120.44 139.393 120.2V117.968H139.225C139.129 118.144 138.993 118.316 138.817 118.484C138.641 118.652 138.413 118.792 138.133 118.904C137.853 119.008 137.505 119.06 137.089 119.06C136.585 119.06 136.121 118.94 135.697 118.7C135.273 118.46 134.937 118.12 134.689 117.68C134.441 117.232 134.317 116.704 134.317 116.096ZM137.341 118.22C137.949 118.22 138.441 118.028 138.817 117.644C139.201 117.26 139.393 116.732 139.393 116.06V115.964C139.393 115.284 139.201 114.756 138.817 114.38C138.441 113.996 137.949 113.804 137.341 113.804C136.741 113.804 136.245 113.996 135.853 114.38C135.469 114.756 135.277 115.284 135.277 115.964V116.06C135.277 116.732 135.469 117.26 135.853 117.644C136.245 118.028 136.741 118.22 137.341 118.22Z" fill="#393A3E"/>
<path fill-rule="evenodd" clip-rule="evenodd" d="M153 108C156.866 108 160 111.134 160 115C160 118.866 156.866 122 153 122C149.134 122 146 118.866 146 115C146 111.134 149.134 108 153 108Z" fill="#22C06D"/>
<path d="M168.996 119.168C167.996 119.168 167.2 118.88 166.608 118.304C166.016 117.72 165.72 116.872 165.72 115.76V113.84C165.72 112.728 166.016 111.884 166.608 111.308C167.2 110.724 167.996 110.432 168.996 110.432C169.988 110.432 170.748 110.708 171.276 111.26C171.812 111.812 172.08 112.568 172.08 113.528V113.588H171.084V113.492C171.084 112.86 170.912 112.344 170.568 111.944C170.232 111.536 169.708 111.332 168.996 111.332C168.284 111.332 167.728 111.552 167.328 111.992C166.928 112.424 166.728 113.032 166.728 113.816V115.784C166.728 116.568 166.928 117.18 167.328 117.62C167.728 118.052 168.284 118.268 168.996 118.268C169.708 118.268 170.232 118.068 170.568 117.668C170.912 117.26 171.084 116.74 171.084 116.108V115.916H172.08V116.072C172.08 117.032 171.812 117.788 171.276 118.34C170.748 118.892 169.988 119.168 168.996 119.168ZM176.407 119.168C175.815 119.168 175.291 119.044 174.835 118.796C174.387 118.548 174.035 118.2 173.779 117.752C173.531 117.296 173.407 116.76 173.407 116.144V115.988C173.407 115.38 173.531 114.848 173.779 114.392C174.035 113.936 174.387 113.584 174.835 113.336C175.291 113.088 175.815 112.964 176.407 112.964C176.999 112.964 177.519 113.088 177.967 113.336C178.423 113.584 178.775 113.936 179.023 114.392C179.279 114.848 179.407 115.38 179.407 115.988V116.144C179.407 116.76 179.279 117.296 179.023 117.752C178.775 118.2 178.423 118.548 177.967 118.796C177.519 119.044 176.999 119.168 176.407 119.168ZM176.407 118.316C177.031 118.316 177.527 118.12 177.895 117.728C178.271 117.328 178.459 116.792 178.459 116.12V116.012C178.459 115.34 178.271 114.808 177.895 114.416C177.527 114.016 177.031 113.816 176.407 113.816C175.791 113.816 175.295 114.016 174.919 114.416C174.543 114.808 174.355 115.34 174.355 116.012V116.12C174.355 116.792 174.543 117.328 174.919 117.728C175.295 118.12 175.791 118.316 176.407 118.316ZM181.113 119V113.132H182.037V113.864H182.205C182.317 113.656 182.501 113.464 182.757 113.288C183.013 113.112 183.373 113.024 183.837 113.024C184.293 113.024 184.661 113.124 184.941 113.324C185.229 113.524 185.437 113.768 185.565 114.056H185.733C185.869 113.768 186.073 113.524 186.345 113.324C186.625 113.124 187.013 113.024 187.509 113.024C187.901 113.024 188.245 113.104 188.541 113.264C188.837 113.424 189.069 113.656 189.237 113.96C189.413 114.256 189.501 114.612 189.501 115.028V119H188.553V115.112C188.553 114.72 188.437 114.412 188.205 114.188C187.981 113.956 187.665 113.84 187.257 113.84C186.825 113.84 186.469 113.98 186.189 114.26C185.917 114.54 185.781 114.944 185.781 115.472V119H184.833V115.112C184.833 114.72 184.717 114.412 184.485 114.188C184.261 113.956 183.945 113.84 183.537 113.84C183.105 113.84 182.749 113.98 182.469 114.26C182.197 114.54 182.061 114.944 182.061 115.472V119H181.113ZM191.437 121.4V113.132H192.361V114.104H192.529C192.681 113.808 192.925 113.544 193.261 113.312C193.605 113.08 194.081 112.964 194.689 112.964C195.193 112.964 195.653 113.088 196.069 113.336C196.493 113.576 196.829 113.92 197.077 114.368C197.333 114.816 197.461 115.356 197.461 115.988V116.144C197.461 116.768 197.337 117.308 197.089 117.764C196.841 118.22 196.505 118.568 196.081 118.808C195.665 119.048 195.201 119.168 194.689 119.168C194.281 119.168 193.933 119.112 193.645 119C193.365 118.896 193.137 118.76 192.961 118.592C192.785 118.424 192.649 118.252 192.553 118.076H192.385V121.4H191.437ZM194.437 118.328C195.045 118.328 195.537 118.136 195.913 117.752C196.297 117.36 196.489 116.816 196.489 116.12V116.012C196.489 115.316 196.297 114.776 195.913 114.392C195.537 114 195.045 113.804 194.437 113.804C193.837 113.804 193.341 114 192.949 114.392C192.565 114.776 192.373 115.316 192.373 116.012V116.12C192.373 116.816 192.565 117.36 192.949 117.752C193.341 118.136 193.837 118.328 194.437 118.328ZM199.16 119V110.6H200.108V119H199.16ZM204.789 119.168C204.197 119.168 203.677 119.044 203.229 118.796C202.781 118.54 202.433 118.184 202.185 117.728C201.937 117.272 201.813 116.744 201.813 116.144V116C201.813 115.392 201.937 114.86 202.185 114.404C202.433 113.948 202.777 113.596 203.217 113.348C203.657 113.092 204.161 112.964 204.729 112.964C205.281 112.964 205.769 113.084 206.193 113.324C206.617 113.556 206.949 113.892 207.189 114.332C207.429 114.772 207.549 115.288 207.549 115.88V116.312H202.761C202.785 116.944 202.989 117.44 203.373 117.8C203.757 118.152 204.237 118.328 204.813 118.328C205.317 118.328 205.705 118.212 205.977 117.98C206.249 117.748 206.457 117.472 206.601 117.152L207.417 117.548C207.297 117.796 207.129 118.044 206.913 118.292C206.705 118.54 206.429 118.748 206.085 118.916C205.749 119.084 205.317 119.168 204.789 119.168ZM202.773 115.532H206.589C206.557 114.988 206.369 114.564 206.025 114.26C205.689 113.956 205.257 113.804 204.729 113.804C204.193 113.804 203.753 113.956 203.409 114.26C203.065 114.564 202.853 114.988 202.773 115.532ZM211.117 119C210.781 119 210.521 118.908 210.337 118.724C210.161 118.54 210.073 118.288 210.073 117.968V113.96H208.309V113.132H210.073V111.044H211.021V113.132H212.941V113.96H211.021V117.824C211.021 118.064 211.137 118.184 211.369 118.184H212.677V119H211.117ZM216.954 119.168C216.362 119.168 215.842 119.044 215.394 118.796C214.946 118.54 214.598 118.184 214.35 117.728C214.102 117.272 213.978 116.744 213.978 116.144V116C213.978 115.392 214.102 114.86 214.35 114.404C214.598 113.948 214.942 113.596 215.382 113.348C215.822 113.092 216.326 112.964 216.894 112.964C217.446 112.964 217.934 113.084 218.358 113.324C218.782 113.556 219.114 113.892 219.354 114.332C219.594 114.772 219.714 115.288 219.714 115.88V116.312H214.926C214.95 116.944 215.154 117.44 215.538 117.8C215.922 118.152 216.402 118.328 216.978 118.328C217.482 118.328 217.87 118.212 218.142 117.98C218.414 117.748 218.622 117.472 218.766 117.152L219.582 117.548C219.462 117.796 219.294 118.044 219.078 118.292C218.87 118.54 218.594 118.748 218.25 118.916C217.914 119.084 217.482 119.168 216.954 119.168ZM214.938 115.532H218.754C218.722 114.988 218.534 114.564 218.19 114.26C217.854 113.956 217.422 113.804 216.894 113.804C216.358 113.804 215.918 113.956 215.574 114.26C215.23 114.564 215.018 114.988 214.938 115.532ZM223.851 119.168C223.347 119.168 222.883 119.048 222.459 118.808C222.035 118.568 221.699 118.22 221.451 117.764C221.203 117.308 221.079 116.768 221.079 116.144V115.988C221.079 115.364 221.203 114.828 221.451 114.38C221.699 113.924 222.031 113.576 222.447 113.336C222.871 113.088 223.339 112.964 223.851 112.964C224.259 112.964 224.603 113.02 224.883 113.132C225.171 113.236 225.403 113.372 225.579 113.54C225.755 113.7 225.891 113.872 225.987 114.056H226.155V110.6H227.103V119H226.179V118.028H226.011C225.851 118.324 225.603 118.588 225.267 118.82C224.931 119.052 224.459 119.168 223.851 119.168ZM224.103 118.328C224.711 118.328 225.203 118.136 225.579 117.752C225.963 117.36 226.155 116.816 226.155 116.12V116.012C226.155 115.316 225.963 114.776 225.579 114.392C225.203 114 224.711 113.804 224.103 113.804C223.503 113.804 223.007 114 222.615 114.392C222.231 114.776 222.039 115.316 222.039 116.012V116.12C222.039 116.816 222.231 117.36 222.615 117.752C223.007 118.136 223.503 118.328 224.103 118.328Z" fill="#393A3E"/>
</svg>
