<svg width="25" height="24" viewBox="0 0 25 24" fill="none" xmlns="http://www.w3.org/2000/svg">
<path d="M10.4059 21C10.5815 21.304 10.834 21.5565 11.138 21.732C11.442 21.9075 11.7869 21.9999 12.1379 21.9999C12.489 21.9999 12.8339 21.9075 13.1379 21.732C13.4419 21.5565 13.6944 21.304 13.8699 21" stroke="#393A3E" stroke-width="2" stroke-linecap="round" stroke-linejoin="round"/>
<path d="M3.39994 15.326C3.26931 15.4692 3.1831 15.6472 3.1518 15.8385C3.1205 16.0298 3.14546 16.226 3.22365 16.4034C3.30183 16.5807 3.42988 16.7316 3.5922 16.8375C3.75452 16.9434 3.94412 16.9999 4.13794 17H20.1379C20.3317 17.0001 20.5214 16.9438 20.6838 16.8381C20.8462 16.7324 20.9744 16.5817 21.0528 16.4045C21.1312 16.2273 21.1564 16.0311 21.1254 15.8398C21.0943 15.6485 21.0084 15.4703 20.8779 15.327C19.5479 13.956 18.1379 12.499 18.1379 8C18.1379 6.4087 17.5058 4.88258 16.3806 3.75736C15.2554 2.63214 13.7292 2 12.1379 2C10.5466 2 9.02052 2.63214 7.8953 3.75736C6.77008 4.88258 6.13794 6.4087 6.13794 8C6.13794 12.499 4.72694 13.956 3.39994 15.326Z" stroke="#393A3E" stroke-width="2" stroke-linecap="round" stroke-linejoin="round"/>
</svg>
