<svg width="24" height="24" viewBox="0 0 24 24" fill="none" xmlns="http://www.w3.org/2000/svg">
<g clip-path="url(#clip0_8949_128875)">
<path d="M22.9565 12.7174H20.5883C20.4655 10.9029 19.7781 9.24107 18.7006 7.90621L20.3008 6.306C20.6064 6.00037 20.6064 5.50486 20.3008 5.19924C19.9952 4.89366 19.4997 4.89366 19.1941 5.19924L17.6118 6.7815C17.094 6.33539 16.5229 5.94966 15.9092 5.63555C15.9585 4.40152 15.4307 3.26002 14.5264 2.49343L15.6838 1.33595C15.9894 1.03037 15.9894 0.534808 15.6838 0.229183C15.3782 -0.0763944 14.8826 -0.0763944 14.577 0.229183L13.0864 1.71981C12.7412 1.61991 12.3769 1.56526 12 1.56526C11.623 1.56526 11.2587 1.61996 10.9136 1.71985L9.42293 0.22923C9.11735 -0.0763475 8.62179 -0.0763475 8.31617 0.22923C8.01054 0.534808 8.01054 1.03037 8.31617 1.33599L9.47365 2.49348C8.57276 3.25721 8.04153 4.39692 8.09089 5.63559C7.47715 5.9497 6.90603 6.33544 6.38825 6.78155L4.80594 5.19924C4.50036 4.89366 4.0048 4.89366 3.69918 5.19924C3.39355 5.50481 3.39351 6.00037 3.69918 6.306L5.29939 7.90621C4.22188 9.24107 3.53451 10.9029 3.41169 12.7174H1.04348C0.611293 12.7174 0.260857 13.0678 0.260857 13.5C0.260857 13.9323 0.611246 14.2827 1.04348 14.2827H3.3913V15.3913C3.3913 17.1327 3.91152 18.7547 4.80407 20.1109L3.69918 21.2158C3.39355 21.5214 3.39355 22.017 3.69918 22.3226C4.0048 22.6282 4.50032 22.6282 4.80594 22.3226L5.78572 21.3428C7.35373 22.9794 9.55985 24 12 24C14.4401 24 16.6462 22.9794 18.2142 21.3428L19.194 22.3225C19.4996 22.6282 19.9951 22.6282 20.3008 22.3225C20.6064 22.017 20.6064 21.5214 20.3008 21.2158L19.1959 20.1109C20.0884 18.7547 20.6086 17.1327 20.6086 15.3913V14.2827H22.9565C23.3887 14.2827 23.7391 13.9323 23.7391 13.5C23.7391 13.0678 23.3887 12.7174 22.9565 12.7174ZM12 3.13046C13.1336 3.13046 14.0822 3.93811 14.3005 5.00831C13.5678 4.80488 12.7964 4.69571 12 4.69571C11.2035 4.69571 10.4321 4.80492 9.69949 5.00831C9.91779 3.93811 10.8663 3.13046 12 3.13046ZM11.2174 22.3911C7.70056 22.0005 4.95655 19.0106 4.95655 15.3913C4.95655 15.3676 4.95655 13.5373 4.95655 13.5C4.95655 11.7722 5.41578 10.2637 6.50028 8.90938C7.66086 10.0327 9.3604 10.761 11.2174 10.9221V22.3911ZM7.60615 7.8037C8.81159 6.83887 10.3394 6.2609 12 6.2609C13.6605 6.2609 15.1884 6.83883 16.3938 7.8037C15.3646 8.79557 13.7485 9.39135 12 9.39135C10.2514 9.39135 8.63534 8.79562 7.60615 7.8037ZM19.0434 15.3913C19.0434 19.0106 16.2993 22.0005 12.7826 22.3911V10.922C14.6395 10.7609 16.3391 10.0326 17.4997 8.90929C18.4651 10.1149 19.0434 11.6433 19.0434 13.3044V15.3913Z" fill="black"/>
<path d="M8.86963 19.3035C9.30186 19.3035 9.65225 18.9531 9.65225 18.5209C9.65225 18.0887 9.30186 17.7383 8.86963 17.7383C8.4374 17.7383 8.08701 18.0887 8.08701 18.5209C8.08701 18.9531 8.4374 19.3035 8.86963 19.3035Z" fill="black"/>
<path d="M7.30437 13.0418C7.73661 13.0418 8.087 12.6914 8.087 12.2592C8.087 11.827 7.73661 11.4766 7.30437 11.4766C6.87214 11.4766 6.52175 11.827 6.52175 12.2592C6.52175 12.6914 6.87214 13.0418 7.30437 13.0418Z" fill="black"/>
<path d="M8.86963 16.1746C9.30186 16.1746 9.65225 15.8242 9.65225 15.392C9.65225 14.9598 9.30186 14.6094 8.86963 14.6094C8.4374 14.6094 8.08701 14.9598 8.08701 15.392C8.08701 15.8242 8.4374 16.1746 8.86963 16.1746Z" fill="black"/>
<path d="M15.1307 19.3035C15.5629 19.3035 15.9133 18.9531 15.9133 18.5209C15.9133 18.0887 15.5629 17.7383 15.1307 17.7383C14.6985 17.7383 14.3481 18.0887 14.3481 18.5209C14.3481 18.9531 14.6985 19.3035 15.1307 19.3035Z" fill="black"/>
<path d="M15.1307 16.1746C15.5629 16.1746 15.9133 15.8242 15.9133 15.392C15.9133 14.9598 15.5629 14.6094 15.1307 14.6094C14.6985 14.6094 14.3481 14.9598 14.3481 15.392C14.3481 15.8242 14.6985 16.1746 15.1307 16.1746Z" fill="black"/>
<path d="M16.6956 13.0418C17.1279 13.0418 17.4783 12.6914 17.4783 12.2592C17.4783 11.827 17.1279 11.4766 16.6956 11.4766C16.2634 11.4766 15.913 11.827 15.913 12.2592C15.913 12.6914 16.2634 13.0418 16.6956 13.0418Z" fill="black"/>
</g>
<defs>
<clipPath id="clip0_8949_128875">
<rect width="24" height="24" fill="white"/>
</clipPath>
</defs>
</svg>
