<svg width="271" height="271" viewBox="0 0 271 271" fill="none" xmlns="http://www.w3.org/2000/svg">
<circle cx="135.509" cy="135.507" r="84.4871" fill="#939393"/>
<path d="M59.2268 91.462C56.9687 90.1583 54.0695 90.9271 52.8823 93.2485C42.4451 113.656 39.9066 137.267 45.8679 159.515C52.2376 183.287 67.7898 203.555 89.1031 215.861C110.417 228.166 135.745 231.501 159.517 225.131C181.765 219.17 200.944 205.165 213.399 185.923C214.816 183.734 214.032 180.839 211.774 179.535L135.5 135.499L59.2268 91.462Z" fill="#F4C430"/>
<path d="M53.6852 182.733C51.427 184.037 50.6439 186.932 52.0535 189.125C65.3621 209.836 85.9396 224.91 109.827 231.311C135.238 238.119 162.313 234.555 185.096 221.401C207.879 208.247 224.504 186.582 231.313 161.171C237.714 137.283 234.948 111.925 223.666 90.0447C222.471 87.7272 219.573 86.958 217.315 88.2618L135.5 135.498L53.6852 182.733Z" fill="#22C06D"/>
<path d="M135.508 236.67C135.508 239.278 137.624 241.402 140.229 241.286C166.594 240.111 191.638 229.121 210.379 210.379C230.236 190.522 241.392 163.59 241.392 135.508C241.392 107.426 230.236 80.4945 210.379 60.6375C191.638 41.8959 166.594 30.9057 140.229 29.7302C137.624 29.614 135.508 31.7388 135.508 34.3462L135.508 135.508L135.508 236.67Z" fill="#EA4847"/>
<circle cx="135.509" cy="135.508" r="60.348" fill="white"/>
<path d="M130.564 134.049V136.262H118.461L118.369 134.591L125.608 123.249H127.832L125.423 127.375L121.262 134.049H130.564ZM128.466 123.249V140.031H125.688V123.249H128.466ZM143.359 130.234V132.977C143.359 134.291 143.228 135.413 142.967 136.343C142.713 137.265 142.344 138.014 141.86 138.59C141.376 139.167 140.796 139.589 140.12 139.858C139.451 140.127 138.702 140.262 137.872 140.262C137.211 140.262 136.596 140.177 136.028 140.008C135.467 139.839 134.96 139.574 134.506 139.213C134.053 138.852 133.665 138.387 133.342 137.818C133.027 137.242 132.781 136.554 132.604 135.755C132.435 134.956 132.351 134.03 132.351 132.977V130.234C132.351 128.912 132.481 127.798 132.743 126.891C133.004 125.977 133.377 125.235 133.861 124.666C134.345 124.09 134.921 123.671 135.59 123.41C136.266 123.149 137.019 123.018 137.849 123.018C138.517 123.018 139.132 123.103 139.693 123.272C140.262 123.433 140.769 123.691 141.215 124.044C141.668 124.397 142.052 124.859 142.367 125.427C142.69 125.988 142.936 126.668 143.105 127.467C143.274 128.259 143.359 129.181 143.359 130.234ZM140.581 133.369V129.819C140.581 129.15 140.542 128.562 140.465 128.055C140.389 127.54 140.273 127.106 140.12 126.753C139.974 126.392 139.789 126.1 139.566 125.877C139.344 125.646 139.09 125.481 138.806 125.381C138.521 125.273 138.202 125.22 137.849 125.22C137.419 125.22 137.034 125.304 136.696 125.473C136.358 125.635 136.074 125.896 135.843 126.257C135.613 126.618 135.436 127.095 135.313 127.686C135.198 128.27 135.14 128.981 135.14 129.819V133.369C135.14 134.045 135.179 134.641 135.255 135.156C135.332 135.67 135.448 136.112 135.601 136.481C135.755 136.842 135.939 137.142 136.155 137.38C136.377 137.611 136.631 137.78 136.915 137.887C137.207 137.995 137.526 138.049 137.872 138.049C138.31 138.049 138.698 137.964 139.036 137.795C139.374 137.626 139.659 137.357 139.889 136.988C140.12 136.612 140.293 136.124 140.408 135.524C140.523 134.925 140.581 134.207 140.581 133.369ZM156.775 130.234V132.977C156.775 134.291 156.645 135.413 156.384 136.343C156.13 137.265 155.761 138.014 155.277 138.59C154.793 139.167 154.213 139.589 153.537 139.858C152.868 140.127 152.119 140.262 151.289 140.262C150.628 140.262 150.013 140.177 149.445 140.008C148.884 139.839 148.376 139.574 147.923 139.213C147.47 138.852 147.082 138.387 146.759 137.818C146.444 137.242 146.198 136.554 146.021 135.755C145.852 134.956 145.768 134.03 145.768 132.977V130.234C145.768 128.912 145.898 127.798 146.16 126.891C146.421 125.977 146.794 125.235 147.278 124.666C147.762 124.09 148.338 123.671 149.007 123.41C149.683 123.149 150.436 123.018 151.266 123.018C151.934 123.018 152.549 123.103 153.11 123.272C153.679 123.433 154.186 123.691 154.632 124.044C155.085 124.397 155.469 124.859 155.784 125.427C156.107 125.988 156.353 126.668 156.522 127.467C156.691 128.259 156.775 129.181 156.775 130.234ZM153.998 133.369V129.819C153.998 129.15 153.959 128.562 153.882 128.055C153.805 127.54 153.69 127.106 153.537 126.753C153.391 126.392 153.206 126.1 152.983 125.877C152.76 125.646 152.507 125.481 152.222 125.381C151.938 125.273 151.619 125.22 151.266 125.22C150.835 125.22 150.451 125.304 150.113 125.473C149.775 125.635 149.491 125.896 149.26 126.257C149.03 126.618 148.853 127.095 148.73 127.686C148.615 128.27 148.557 128.981 148.557 129.819V133.369C148.557 134.045 148.595 134.641 148.672 135.156C148.749 135.67 148.864 136.112 149.018 136.481C149.172 136.842 149.356 137.142 149.571 137.38C149.794 137.611 150.048 137.78 150.332 137.887C150.624 137.995 150.943 138.049 151.289 138.049C151.727 138.049 152.115 137.964 152.453 137.795C152.791 137.626 153.075 137.357 153.306 136.988C153.537 136.612 153.709 136.124 153.825 135.524C153.94 134.925 153.998 134.207 153.998 133.369Z" fill="#393A3E"/>
</svg>
